<svg id="_圖層_1" data-name="圖層_1" xmlns="http://www.w3.org/2000/svg" version="1.1" viewBox="0 0 420 292"><defs><style>.st2{fill:#c9caca}.st3{fill:#dcdddd}.st4{fill:none;stroke:#c9caca;stroke-miterlimit:10;stroke-width:1px}</style></defs><path style="fill:#fcebec" d="M7.4 74.1h405.1v195H7.4z"/><path class="st2" d="M102.5 206.8v-13.6h4.3v5.8s.2 1.5 1.2 1.5v-1.7l4.3 3.5-4 3.7v-1.5s-1.1.2-1.7-.3v2.6h1.3l-3.3 4.1-3.8-4.1h1.6ZM373.6 194v13.6h-4.3v-5.8s-.2-1.5-1.2-1.5v1.7l-4.3-3.5 4-3.7v1.5s1.1-.2 1.7.3V194h-1.3l3.3-4.1 3.8 4.1h-1.6Z"/><path class="st3" d="M7.5 104.6h90.6v164.5H7.5z"/><path style="fill:#fcf3ca" d="M363.7 86.9H100.2V74.1h302.4v2.4l-22.8 4.7-16.1.1v5.6z"/><path d="M40.2 50.1v10.5H7.4v44c36.5 4.4 61.3 14.9 77.3 48.7h19V50.1H40.2Z" style="fill:#f5b9bc"/><path class="st2" d="M232.5 174.3V172l-4.3 4.3 4.3 4.2v-2.3h12.2v-3.9h-12.2zm0-84.1v-2.3l-4.3 4.2 4.3 4.2V94h12.2v-3.8h-12.2zm11.9 44.9v2.3l4.4-4.3-4.4-4.2v2.3h-12.2v3.9h12.2zm0 89.1v2.3l4.4-4.2-4.4-4.2v2.3h-12.2v3.8h12.2z"/><path class="st3" d="M103.7 50.1h308.9v24H103.7zm308.7 38.5s-29.1 6.7-30.8 7.2-3.7.7-3.7 2.3v6.2s0 1.4 2.3 1.5 17.5 0 17.5 0 3.6 0 5.8-.4c2.3-.5 4.8-.5 6.2-1.4s2.7-1.6 2.7-1.6V88.6Z"/><path class="st2" d="M373.6 119h-3.9v-9.3s-.2-1.6-1.6-1.6v1.8l-4.4-4 4.2-3.6v1.8s5.7 0 5.7 4.4v10.4Z"/><path class="st4" d="M115.6 99.5h5.3v11.1h-5.3zm5.3 0h5.3v11.1h-5.3zm5.3 0h5.3v11.1h-5.3zm5.3 0h5.3v11.1h-5.3zm5.3 0h5.3v11.1h-5.3z"/><path class="st4" d="M142.1 99.5h5.3v11.1h-5.3zm5.3 0h5.3v11.1h-5.3z"/><path class="st4" d="M152.7 99.5h5.3v11.1h-5.3zm5.3 0h5.3v11.1H158zm5.3 0h5.3v11.1h-5.3z"/><path class="st4" d="M168.6 99.5h5.3v11.1h-5.3zm5.3 0h5.3v11.1h-5.3z"/><path class="st4" d="M179.2 99.5h5.3v11.1h-5.3zm5.3 0h5.3v11.1h-5.3zm5.3 0h5.3v11.1h-5.3z"/><path class="st4" d="M195.1 99.5h5.3v11.1h-5.3zm5.3 0h5.3v11.1h-5.3z"/><path class="st4" d="M205.7 99.5h5.3v11.1h-5.3zm5.3 0h5.3v11.1H211zm5.3 0h5.3v11.1h-5.3z"/><path class="st4" d="M221.6 99.5h5.3v11.1h-5.3zm5.3 0h5.3v11.1h-5.3z"/><path class="st4" d="M232.2 99.5h5.3v11.1h-5.3zm5.3 0h5.3v11.1h-5.3z"/><path class="st4" d="M242.7 99.5h5.3v11.1h-5.3zm5.3 0h5.3v11.1H248zm5.3 0h5.3v11.1h-5.3zm5.3 0h5.3v11.1h-5.3z"/><path class="st4" d="M263.9 99.5h5.3v11.1h-5.3zm5.3 0h5.3v11.1h-5.3zm5.3 0h5.3v11.1h-5.3zm5.3 0h5.3v11.1h-5.3zm5.3 0h5.3v11.1h-5.3z"/><path class="st4" d="M290.4 99.5h5.3v11.1h-5.3zm5.3 0h5.3v11.1h-5.3zm5.3 0h5.3v11.1H301zm5.3 0h5.3v11.1h-5.3zm5.3 0h5.3v11.1h-5.3z"/><path class="st4" d="M316.9 99.5h5.3v11.1h-5.3zm5.3 0h5.3v11.1h-5.3zm5.3 0h5.3v11.1h-5.3zm5.3 0h5.3v11.1h-5.3zm5.3 0h5.3v11.1h-5.3z"/><path class="st4" d="M343.4 99.5h5.3v11.1h-5.3zm5.3 0h5.3v11.1h-5.3zm5.3 0h5.3v11.1H354zm-238.4 14.7h5.3v11.1h-5.3zm5.3 0h5.3v11.1h-5.3zm5.3 0h5.3v11.1h-5.3zm5.3 0h5.3v11.1h-5.3zm5.3 0h5.3v11.1h-5.3z"/><path class="st4" d="M142.1 114.2h5.3v11.1h-5.3zm5.3 0h5.3v11.1h-5.3z"/><path class="st4" d="M152.7 114.2h5.3v11.1h-5.3zm5.3 0h5.3v11.1H158zm5.3 0h5.3v11.1h-5.3z"/><path class="st4" d="M168.6 114.2h5.3v11.1h-5.3zm5.3 0h5.3v11.1h-5.3z"/><path class="st4" d="M179.2 114.2h5.3v11.1h-5.3zm5.3 0h5.3v11.1h-5.3zm5.3 0h5.3v11.1h-5.3z"/><path class="st4" d="M195.1 114.2h5.3v11.1h-5.3zm5.3 0h5.3v11.1h-5.3z"/><path class="st4" d="M205.7 114.2h5.3v11.1h-5.3zm5.3 0h5.3v11.1H211zm5.3 0h5.3v11.1h-5.3z"/><path class="st4" d="M221.6 114.2h5.3v11.1h-5.3zm5.3 0h5.3v11.1h-5.3z"/><path class="st4" d="M232.2 114.2h5.3v11.1h-5.3zm5.3 0h5.3v11.1h-5.3z"/><path class="st4" d="M242.7 114.2h5.3v11.1h-5.3zm5.3 0h5.3v11.1H248zm5.3 0h5.3v11.1h-5.3zm5.3 0h5.3v11.1h-5.3z"/><path class="st4" d="M263.9 114.2h5.3v11.1h-5.3zm5.3 0h5.3v11.1h-5.3zm5.3 0h5.3v11.1h-5.3zm5.3 0h5.3v11.1h-5.3zm5.3 0h5.3v11.1h-5.3z"/><path class="st4" d="M290.4 114.2h5.3v11.1h-5.3zm5.3 0h5.3v11.1h-5.3zm5.3 0h5.3v11.1H301zm5.3 0h5.3v11.1h-5.3zm5.3 0h5.3v11.1h-5.3z"/><path class="st4" d="M316.9 114.2h5.3v11.1h-5.3zm5.3 0h5.3v11.1h-5.3zm5.3 0h5.3v11.1h-5.3zm5.3 0h5.3v11.1h-5.3zm5.3 0h5.3v11.1h-5.3z"/><path class="st4" d="M343.4 114.2h5.3v11.1h-5.3zm5.3 0h5.3v11.1h-5.3zm5.3 0h5.3v11.1H354zm-238.4 28.5h5.3v11.1h-5.3zm5.3 0h5.3v11.1h-5.3zm5.3 0h5.3v11.1h-5.3zm5.3 0h5.3v11.1h-5.3zm5.3 0h5.3v11.1h-5.3z"/><path class="st4" d="M142.1 142.7h5.3v11.1h-5.3zm5.3 0h5.3v11.1h-5.3z"/><path class="st4" d="M152.7 142.7h5.3v11.1h-5.3zm5.3 0h5.3v11.1H158zm5.3 0h5.3v11.1h-5.3z"/><path class="st4" d="M168.6 142.7h5.3v11.1h-5.3zm5.3 0h5.3v11.1h-5.3z"/><path class="st4" d="M179.2 142.7h5.3v11.1h-5.3zm5.3 0h5.3v11.1h-5.3zm5.3 0h5.3v11.1h-5.3z"/><path class="st4" d="M195.1 142.7h5.3v11.1h-5.3zm5.3 0h5.3v11.1h-5.3z"/><path class="st4" d="M205.7 142.7h5.3v11.1h-5.3zm5.3 0h5.3v11.1H211zm5.3 0h5.3v11.1h-5.3z"/><path class="st4" d="M221.6 142.7h5.3v11.1h-5.3zm5.3 0h5.3v11.1h-5.3z"/><path class="st4" d="M232.2 142.7h5.3v11.1h-5.3zm5.3 0h5.3v11.1h-5.3z"/><path class="st4" d="M242.7 142.7h5.3v11.1h-5.3zm5.3 0h5.3v11.1H248zm5.3 0h5.3v11.1h-5.3zm5.3 0h5.3v11.1h-5.3z"/><path class="st4" d="M263.9 142.7h5.3v11.1h-5.3zm5.3 0h5.3v11.1h-5.3zm5.3 0h5.3v11.1h-5.3zm5.3 0h5.3v11.1h-5.3zm5.3 0h5.3v11.1h-5.3z"/><path class="st4" d="M290.4 142.7h5.3v11.1h-5.3zm5.3 0h5.3v11.1h-5.3zm5.3 0h5.3v11.1H301zm5.3 0h5.3v11.1h-5.3zm5.3 0h5.3v11.1h-5.3z"/><path class="st4" d="M316.9 142.7h5.3v11.1h-5.3zm5.3 0h5.3v11.1h-5.3zm5.3 0h5.3v11.1h-5.3zm5.3 0h5.3v11.1h-5.3zm5.3 0h5.3v11.1h-5.3z"/><path class="st4" d="M343.4 142.7h5.3v11.1h-5.3zm5.3 0h5.3v11.1h-5.3zm5.3 0h5.3v11.1H354zm-238.4 14.7h5.3v11.1h-5.3zm5.3 0h5.3v11.1h-5.3zm5.3 0h5.3v11.1h-5.3zm5.3 0h5.3v11.1h-5.3zm5.3 0h5.3v11.1h-5.3z"/><path class="st4" d="M142.1 157.4h5.3v11.1h-5.3zm5.3 0h5.3v11.1h-5.3z"/><path class="st4" d="M152.7 157.4h5.3v11.1h-5.3zm5.3 0h5.3v11.1H158zm5.3 0h5.3v11.1h-5.3z"/><path class="st4" d="M168.6 157.4h5.3v11.1h-5.3zm5.3 0h5.3v11.1h-5.3z"/><path class="st4" d="M179.2 157.4h5.3v11.1h-5.3zm5.3 0h5.3v11.1h-5.3zm5.3 0h5.3v11.1h-5.3z"/><path class="st4" d="M195.1 157.4h5.3v11.1h-5.3zm5.3 0h5.3v11.1h-5.3z"/><path class="st4" d="M205.7 157.4h5.3v11.1h-5.3zm5.3 0h5.3v11.1H211zm5.3 0h5.3v11.1h-5.3z"/><path class="st4" d="M221.6 157.4h5.3v11.1h-5.3zm5.3 0h5.3v11.1h-5.3z"/><path class="st4" d="M232.2 157.4h5.3v11.1h-5.3zm5.3 0h5.3v11.1h-5.3z"/><path class="st4" d="M242.7 157.4h5.3v11.1h-5.3zm5.3 0h5.3v11.1H248zm5.3 0h5.3v11.1h-5.3zm5.3 0h5.3v11.1h-5.3z"/><path class="st4" d="M263.9 157.4h5.3v11.1h-5.3zm5.3 0h5.3v11.1h-5.3zm5.3 0h5.3v11.1h-5.3zm5.3 0h5.3v11.1h-5.3zm5.3 0h5.3v11.1h-5.3z"/><path class="st4" d="M290.4 157.4h5.3v11.1h-5.3zm5.3 0h5.3v11.1h-5.3zm5.3 0h5.3v11.1H301zm5.3 0h5.3v11.1h-5.3zm5.3 0h5.3v11.1h-5.3z"/><path class="st4" d="M316.9 157.4h5.3v11.1h-5.3zm5.3 0h5.3v11.1h-5.3zm5.3 0h5.3v11.1h-5.3zm5.3 0h5.3v11.1h-5.3zm5.3 0h5.3v11.1h-5.3z"/><path class="st4" d="M343.4 157.4h5.3v11.1h-5.3zm5.3 0h5.3v11.1h-5.3zm5.3 0h5.3v11.1H354zm-238.4 30.8h5.3v11.1h-5.3zm5.3 0h5.3v11.1h-5.3zm5.3 0h5.3v11.1h-5.3zm5.3 0h5.3v11.1h-5.3zm5.3 0h5.3v11.1h-5.3z"/><path class="st4" d="M142.1 188.2h5.3v11.1h-5.3zm5.3 0h5.3v11.1h-5.3z"/><path class="st4" d="M152.7 188.2h5.3v11.1h-5.3zm5.3 0h5.3v11.1H158zm5.3 0h5.3v11.1h-5.3z"/><path class="st4" d="M168.6 188.2h5.3v11.1h-5.3zm5.3 0h5.3v11.1h-5.3z"/><path class="st4" d="M179.2 188.2h5.3v11.1h-5.3zm5.3 0h5.3v11.1h-5.3zm5.3 0h5.3v11.1h-5.3z"/><path class="st4" d="M195.1 188.2h5.3v11.1h-5.3zm5.3 0h5.3v11.1h-5.3z"/><path class="st4" d="M205.7 188.2h5.3v11.1h-5.3zm5.3 0h5.3v11.1H211zm5.3 0h5.3v11.1h-5.3z"/><path class="st4" d="M221.6 188.2h5.3v11.1h-5.3zm5.3 0h5.3v11.1h-5.3z"/><path class="st4" d="M232.2 188.2h5.3v11.1h-5.3zm5.3 0h5.3v11.1h-5.3z"/><path class="st4" d="M242.7 188.2h5.3v11.1h-5.3zm5.3 0h5.3v11.1H248zm5.3 0h5.3v11.1h-5.3zm5.3 0h5.3v11.1h-5.3z"/><path class="st4" d="M263.9 188.2h5.3v11.1h-5.3zm5.3 0h5.3v11.1h-5.3zm5.3 0h5.3v11.1h-5.3zm5.3 0h5.3v11.1h-5.3zm5.3 0h5.3v11.1h-5.3z"/><path class="st4" d="M290.4 188.2h5.3v11.1h-5.3zm5.3 0h5.3v11.1h-5.3zm5.3 0h5.3v11.1H301zm5.3 0h5.3v11.1h-5.3zm5.3 0h5.3v11.1h-5.3z"/><path class="st4" d="M316.9 188.2h5.3v11.1h-5.3zm5.3 0h5.3v11.1h-5.3zm5.3 0h5.3v11.1h-5.3zm5.3 0h5.3v11.1h-5.3zm5.3 0h5.3v11.1h-5.3z"/><path class="st4" d="M343.4 188.2h5.3v11.1h-5.3zm5.3 0h5.3v11.1h-5.3zm5.3 0h5.3v11.1H354zm-238.4 14.7h5.3V214h-5.3zm5.3 0h5.3V214h-5.3zm5.3 0h5.3V214h-5.3zm5.3 0h5.3V214h-5.3zm5.3 0h5.3V214h-5.3z"/><path class="st4" d="M142.1 202.9h5.3V214h-5.3zm5.3 0h5.3V214h-5.3z"/><path class="st4" d="M152.7 202.9h5.3V214h-5.3zm5.3 0h5.3V214H158zm5.3 0h5.3V214h-5.3z"/><path class="st4" d="M168.6 202.9h5.3V214h-5.3zm5.3 0h5.3V214h-5.3z"/><path class="st4" d="M179.2 202.9h5.3V214h-5.3zm5.3 0h5.3V214h-5.3zm5.3 0h5.3V214h-5.3z"/><path class="st4" d="M195.1 202.9h5.3V214h-5.3zm5.3 0h5.3V214h-5.3z"/><path class="st4" d="M205.7 202.9h5.3V214h-5.3zm5.3 0h5.3V214H211zm5.3 0h5.3V214h-5.3z"/><path class="st4" d="M221.6 202.9h5.3V214h-5.3zm5.3 0h5.3V214h-5.3z"/><path class="st4" d="M232.2 202.9h5.3V214h-5.3zm5.3 0h5.3V214h-5.3z"/><path class="st4" d="M242.7 202.9h5.3V214h-5.3zm5.3 0h5.3V214H248zm5.3 0h5.3V214h-5.3zm5.3 0h5.3V214h-5.3z"/><path class="st4" d="M263.9 202.9h5.3V214h-5.3zm5.3 0h5.3V214h-5.3zm5.3 0h5.3V214h-5.3zm5.3 0h5.3V214h-5.3zm5.3 0h5.3V214h-5.3z"/><path class="st4" d="M290.4 202.9h5.3V214h-5.3zm5.3 0h5.3V214h-5.3zm5.3 0h5.3V214H301zm5.3 0h5.3V214h-5.3zm5.3 0h5.3V214h-5.3z"/><path class="st4" d="M316.9 202.9h5.3V214h-5.3zm5.3 0h5.3V214h-5.3zm5.3 0h5.3V214h-5.3zm5.3 0h5.3V214h-5.3zm5.3 0h5.3V214h-5.3z"/><path class="st4" d="M343.4 202.9h5.3V214h-5.3zm5.3 0h5.3V214h-5.3zm5.3 0h5.3V214H354zm-238.4 29.3h5.3v11.1h-5.3zm5.3 0h5.3v11.1h-5.3zm5.3 0h5.3v11.1h-5.3zm5.3 0h5.3v11.1h-5.3zm5.3 0h5.3v11.1h-5.3z"/><path class="st4" d="M142.1 232.2h5.3v11.1h-5.3zm5.3 0h5.3v11.1h-5.3z"/><path class="st4" d="M152.7 232.2h5.3v11.1h-5.3zm5.3 0h5.3v11.1H158zm5.3 0h5.3v11.1h-5.3z"/><path class="st4" d="M168.6 232.2h5.3v11.1h-5.3zm5.3 0h5.3v11.1h-5.3z"/><path class="st4" d="M179.2 232.2h5.3v11.1h-5.3zm5.3 0h5.3v11.1h-5.3zm5.3 0h5.3v11.1h-5.3z"/><path class="st4" d="M195.1 232.2h5.3v11.1h-5.3zm5.3 0h5.3v11.1h-5.3z"/><path class="st4" d="M205.7 232.2h5.3v11.1h-5.3zm5.3 0h5.3v11.1H211zm5.3 0h5.3v11.1h-5.3z"/><path class="st4" d="M221.6 232.2h5.3v11.1h-5.3zm5.3 0h5.3v11.1h-5.3z"/><path class="st4" d="M232.2 232.2h5.3v11.1h-5.3zm5.3 0h5.3v11.1h-5.3z"/><path class="st4" d="M242.7 232.2h5.3v11.1h-5.3zm5.3 0h5.3v11.1H248zm5.3 0h5.3v11.1h-5.3zm5.3 0h5.3v11.1h-5.3z"/><path class="st4" d="M263.9 232.2h5.3v11.1h-5.3zm5.3 0h5.3v11.1h-5.3zm5.3 0h5.3v11.1h-5.3zm5.3 0h5.3v11.1h-5.3zm5.3 0h5.3v11.1h-5.3z"/><path class="st4" d="M290.4 232.2h5.3v11.1h-5.3zm5.3 0h5.3v11.1h-5.3zm5.3 0h5.3v11.1H301zm5.3 0h5.3v11.1h-5.3zm5.3 0h5.3v11.1h-5.3z"/><path class="st4" d="M316.9 232.2h5.3v11.1h-5.3zm5.3 0h5.3v11.1h-5.3zm5.3 0h5.3v11.1h-5.3zm5.3 0h5.3v11.1h-5.3zm5.3 0h5.3v11.1h-5.3z"/><path class="st4" d="M343.4 232.2h5.3v11.1h-5.3zm5.3 0h5.3v11.1h-5.3zm5.3 0h5.3v11.1H354zm-238.4 14.7h5.3V258h-5.3zm5.3 0h5.3V258h-5.3zm5.3 0h5.3V258h-5.3zm5.3 0h5.3V258h-5.3zm5.3 0h5.3V258h-5.3z"/><path class="st4" d="M142.1 246.9h5.3V258h-5.3zm5.3 0h5.3V258h-5.3z"/><path class="st4" d="M152.7 246.9h5.3V258h-5.3zm5.3 0h5.3V258H158zm5.3 0h5.3V258h-5.3z"/><path class="st4" d="M168.6 246.9h5.3V258h-5.3zm5.3 0h5.3V258h-5.3z"/><path class="st4" d="M179.2 246.9h5.3V258h-5.3zm5.3 0h5.3V258h-5.3zm5.3 0h5.3V258h-5.3z"/><path class="st4" d="M195.1 246.9h5.3V258h-5.3zm5.3 0h5.3V258h-5.3z"/><path class="st4" d="M205.7 246.9h5.3V258h-5.3zm5.3 0h5.3V258H211zm5.3 0h5.3V258h-5.3z"/><path class="st4" d="M221.6 246.9h5.3V258h-5.3zm5.3 0h5.3V258h-5.3z"/><path class="st4" d="M232.2 246.9h5.3V258h-5.3zm5.3 0h5.3V258h-5.3z"/><path class="st4" d="M242.7 246.9h5.3V258h-5.3zm5.3 0h5.3V258H248zm5.3 0h5.3V258h-5.3zm5.3 0h5.3V258h-5.3z"/><path class="st4" d="M263.9 246.9h5.3V258h-5.3zm5.3 0h5.3V258h-5.3zm5.3 0h5.3V258h-5.3zm5.3 0h5.3V258h-5.3zm5.3 0h5.3V258h-5.3z"/><path class="st4" d="M290.4 246.9h5.3V258h-5.3zm5.3 0h5.3V258h-5.3zm5.3 0h5.3V258H301zm5.3 0h5.3V258h-5.3zm5.3 0h5.3V258h-5.3z"/><path class="st4" d="M316.9 246.9h5.3V258h-5.3zm5.3 0h5.3V258h-5.3zm5.3 0h5.3V258h-5.3zm5.3 0h5.3V258h-5.3zm5.3 0h5.3V258h-5.3z"/><path class="st4" d="M343.4 246.9h5.3V258h-5.3zm5.3 0h5.3V258h-5.3zm5.3 0h5.3V258H354z"/><path class="st2" d="m395.1 119.3-1-1.2h5.6l-.7 5.5-.8-1.1-9.6 8.2-2.7-3.1 9.2-8.3z"/><path d="M39.4 196.2h-.9l-3.6-5.5v5.5h-.7v-6.6h.9l3.6 5.5v-5.4h.7v6.6Zm3.5-5c.6 0 1 .1 1.3.4.3.3.4.7.4 1.3v3.4h-.5v-.7h-.2c-.1.2-.3.3-.4.5-.2.1-.3.2-.5.3s-.4 0-.7 0-.6 0-.8-.2c-.2-.1-.4-.3-.6-.5-.1-.2-.2-.5-.2-.8 0-.5.2-.9.6-1.1.4-.3 1-.4 1.8-.4h.9v-.3c0-.4 0-.7-.3-.9-.2-.2-.4-.3-.8-.3s-.5 0-.7.1-.5.2-.7.3l-.2-.6c.2-.1.5-.2.8-.3.3 0 .6-.1.9-.1Zm1 2.6h-.8c-.6 0-1.1.2-1.3.3-.3.2-.4.4-.4.8s0 .5.3.6c.2.1.4.2.7.2.4 0 .8-.1 1.1-.4.3-.2.4-.6.4-1.1v-.5Zm3.9 1.9h.7v.6h-.9c-.3 0-.5 0-.7-.1s-.4-.2-.5-.5-.2-.5-.2-.9v-2.9h-.7v-.4l.7-.3.3-1.1h.5v1.1h1.4v.6H47v2.9c0 .3 0 .5.2.7s.3.2.6.2Zm2.1-6.3c.1 0 .2 0 .3.1 0 0 .1.2.1.4s0 .3-.1.4-.2.1-.3.1-.2 0-.3-.1-.1-.2-.1-.4 0-.3.1-.4c0 0 .2-.1.3-.1Zm.4 1.9v4.9h-.7v-4.9h.7Zm5.8 2.4c0 .4 0 .8-.2 1.1-.1.3-.3.6-.5.8s-.4.4-.7.5c-.3.1-.6.2-1 .2s-.6 0-.9-.2c-.3-.1-.5-.3-.7-.5s-.4-.5-.5-.8c-.1-.3-.2-.7-.2-1.1s0-1 .3-1.4.4-.7.8-.9c.3-.2.7-.3 1.2-.3s.8.1 1.2.3c.3.2.6.5.8.9.2.4.3.8.3 1.4Zm-3.7 0c0 .4 0 .7.2 1s.3.5.5.7c.2.2.5.2.8.2s.6 0 .8-.2c.2-.2.4-.4.5-.7.1-.3.2-.6.2-1s0-.7-.2-1c-.1-.3-.3-.5-.5-.7s-.5-.2-.9-.2c-.5 0-.9.2-1.1.5s-.4.8-.4 1.4Zm7.4-2.5c.6 0 1 .1 1.3.4.3.3.5.7.5 1.4v3.2h-.7V193c0-.4 0-.7-.3-.9-.2-.2-.5-.3-.9-.3s-.9.2-1.2.5c-.2.3-.3.8-.3 1.3v2.6h-.7v-4.9h.6v.7h.2c.1-.2.2-.3.4-.4.2-.1.3-.2.5-.3h.6Zm5.1 0c.6 0 1 .1 1.3.4.3.3.4.7.4 1.3v3.4h-.5v-.7h-.2c-.1.2-.3.3-.4.5-.2.1-.3.2-.5.3s-.4 0-.7 0-.6 0-.8-.2c-.2-.1-.4-.3-.6-.5-.1-.2-.2-.5-.2-.8 0-.5.2-.9.6-1.1.4-.3 1-.4 1.8-.4h.9v-.3c0-.4 0-.7-.3-.9-.2-.2-.4-.3-.8-.3s-.5 0-.7.1-.5.2-.7.3l-.2-.6c.2-.1.5-.2.8-.3.3 0 .6-.1.9-.1Zm1 2.6h-.8c-.6 0-1.1.2-1.3.3-.3.2-.4.4-.4.8s0 .5.3.6c.2.1.4.2.7.2.4 0 .8-.1 1.1-.4.3-.2.4-.6.4-1.1v-.5Zm3.1 2.4h-.8v-7h.8v7Zm-30 16.2h-.8v-5.9h-2.1v-.7H41v.7h-2.1v5.9Zm3.7-7v2.8c.1-.2.2-.3.4-.4.2-.1.3-.2.5-.3h.6c.4 0 .7 0 1 .2.3.1.5.3.6.6.1.3.2.6.2 1v3.2h-.7v-3.2c0-.4 0-.7-.3-.9-.2-.2-.5-.3-.9-.3s-.7 0-.9.2c-.2.1-.4.3-.5.6 0 .3-.1.6-.1 1v2.6h-.7v-7h.7Zm6.8 2c.4 0 .8 0 1.1.3.3.2.5.4.7.8.2.3.2.7.2 1.2v.5h-3.4c0 .6.2 1 .4 1.3.3.3.7.5 1.2.5h.8c.2 0 .5-.1.7-.3v.7c-.2.1-.5.2-.7.2h-.9c-.5 0-.9 0-1.2-.3-.4-.2-.6-.5-.8-.9s-.3-.8-.3-1.4 0-1 .3-1.4.4-.7.8-.9.7-.3 1.2-.3Zm0 .6c-.4 0-.7.1-1 .4-.2.3-.4.6-.4 1.1h2.6c0-.3 0-.6-.1-.8 0-.2-.2-.4-.4-.5s-.4-.2-.7-.2Zm5.2-.6c.6 0 1 .1 1.3.4.3.3.4.7.4 1.3v3.4h-.5v-.7h-.2c-.1.2-.3.3-.4.5-.2.1-.3.2-.5.3s-.4 0-.7 0-.6 0-.8-.2c-.2-.1-.4-.3-.6-.5-.1-.2-.2-.5-.2-.8 0-.5.2-.9.6-1.1.4-.3 1-.4 1.8-.4h.9v-.3c0-.4 0-.7-.3-.9-.2-.2-.4-.3-.8-.3s-.5 0-.7.1-.5.2-.7.3l-.2-.6c.2-.1.5-.2.8-.3.3 0 .6-.1.9-.1Zm1 2.6h-.8c-.6 0-1.1.2-1.3.3-.3.2-.4.4-.4.8s0 .5.3.6c.2.1.4.2.7.2.4 0 .8-.1 1.1-.4.3-.2.4-.6.4-1.1v-.5Zm3.9 1.9h.7v.6h-.9c-.3 0-.5 0-.7-.1s-.4-.2-.5-.5-.2-.5-.2-.9v-2.9h-.7v-.4l.7-.3.3-1.1h.5v1.1h1.4v.6h-1.4v2.9c0 .3 0 .5.2.7s.3.2.6.2Zm3.6-4.5c.4 0 .8 0 1.1.3.3.2.5.4.7.8.2.3.2.7.2 1.2v.5h-3.4c0 .6.2 1 .4 1.3.3.3.7.5 1.2.5h.8c.2 0 .5-.1.7-.3v.7c-.2.1-.5.2-.7.2h-.9c-.5 0-.9 0-1.2-.3-.4-.2-.6-.5-.8-.9s-.3-.8-.3-1.4 0-1 .3-1.4.4-.7.8-.9.7-.3 1.2-.3Zm0 .6c-.4 0-.7.1-1 .4-.2.3-.4.6-.4 1.1h2.6c0-.3 0-.6-.1-.8 0-.2-.2-.4-.4-.5s-.4-.2-.7-.2Zm5.5-.6h.6v.7h-.7c-.2 0-.4 0-.6.1-.2 0-.3.2-.5.3-.1.1-.2.3-.3.5 0 .2-.1.4-.1.7v2.7h-.8v-4.9h.6v.9h.1c.1-.2.2-.4.4-.5.1-.2.3-.3.5-.4.2 0 .4-.1.6-.1ZM26.5 79.9c-.3 0-.5 0-.8.1-.2 0-.4.2-.6.4s-.3.4-.4.7-.1.6-.1.9 0 .8.2 1.1c.1.3.3.6.6.8.3.2.6.3 1 .3h.7c.2 0 .4 0 .6-.1v.5c-.2 0-.4.1-.6.2h-.7c-.5 0-1-.1-1.3-.3s-.6-.5-.8-.9-.3-.9-.3-1.4 0-.8.2-1.1c.1-.3.3-.6.5-.8.2-.2.5-.4.8-.6.3-.1.7-.2 1.1-.2h.8c.2 0 .5.1.7.2l-.2.5c-.2 0-.4-.1-.5-.2h-.6Zm5.7 2.8c0 .3 0 .6-.1.9s-.2.5-.4.6c-.2.2-.3.3-.6.4s-.5.1-.8.1-.5 0-.7-.1-.4-.2-.6-.4c-.2-.2-.3-.4-.4-.6 0-.3-.1-.5-.1-.9s0-.8.2-1.1.4-.5.6-.7c.3-.2.6-.2 1-.2s.7 0 .9.2c.3.2.5.4.6.7.1.3.2.7.2 1.1Zm-3 0c0 .3 0 .6.1.8 0 .2.2.4.4.5.2.1.4.2.7.2s.5 0 .7-.2c.2-.1.3-.3.4-.5s.1-.5.1-.8 0-.6-.1-.8c0-.2-.2-.4-.4-.5s-.4-.2-.7-.2c-.4 0-.7.1-.9.4-.2.3-.3.6-.3 1.1Zm5.9-2c.5 0 .8.1 1.1.3.2.2.4.6.4 1.1v2.6H36v-2.5c0-.3 0-.6-.2-.7-.1-.2-.4-.2-.7-.2s-.7.1-.9.4c-.2.2-.3.6-.3 1.1v2.1h-.6V81h.5v.6h.1c0-.1.2-.3.3-.3.1 0 .3-.2.4-.2h.5Zm5.1 2.9c0 .3 0 .5-.2.6-.1.2-.3.3-.5.4-.2 0-.5.1-.8.1H38c-.2 0-.4-.1-.5-.2V84c.2 0 .4.2.6.2h.7c.3 0 .6 0 .7-.2.2-.1.2-.3.2-.4v-.3c0-.1-.2-.2-.3-.2-.1 0-.3-.2-.6-.3-.3 0-.5-.2-.6-.3-.2 0-.3-.2-.4-.3s-.1-.3-.1-.5c0-.3.1-.6.4-.8s.6-.3 1.1-.3h.7c.2 0 .4.1.6.2l-.2.5c-.2 0-.3-.1-.5-.2h-.6c-.3 0-.5 0-.6.1-.1 0-.2.2-.2.4s0 .2.1.3c0 0 .2.2.3.2.2 0 .3.2.6.2.2 0 .5.2.6.3.2 0 .3.2.4.4 0 .1.1.3.1.5Zm2.3.7h.6v.5h-.7c-.2 0-.4 0-.6-.1-.2 0-.3-.2-.4-.4-.1-.2-.2-.4-.2-.7v-2.3h-.6V81l.6-.2.2-.9h.4v.9h1.1v.5h-1.1v2.3c0 .2 0 .4.2.6.1.1.3.2.5.2Zm3.1-3.6h.4v.6h-.9c-.1 0-.3.2-.4.3s-.2.3-.2.4v2.7h-.6v-3.9h.5v.7c0-.1.2-.3.3-.4.1-.1.2-.2.4-.3.2 0 .3-.1.5-.1Zm4.4.1v3.9h-.5v-.6h-.1c0 .1-.2.3-.3.3-.1 0-.3.2-.4.2h-.5c-.3 0-.6 0-.8-.2-.2 0-.4-.3-.5-.5-.1-.2-.2-.5-.2-.8v-2.6h.6V83c0 .3 0 .6.2.7s.4.2.7.2.5 0 .7-.2c.2-.1.3-.3.4-.5 0-.2.1-.5.1-.8v-2.1h.6Zm2.9 4c-.4 0-.7 0-.9-.2s-.5-.4-.6-.7c-.2-.3-.2-.7-.2-1.1s0-.9.2-1.2.4-.5.7-.7.6-.2 1-.2h.6c.2 0 .3 0 .4.1l-.2.5c-.1 0-.3 0-.4-.1s-.3 0-.4 0c-.3 0-.5 0-.7.2s-.3.3-.4.5-.1.5-.1.8 0 .6.1.8c0 .2.2.4.4.5.2.1.4.2.6.2h.6c.2 0 .3 0 .5-.2v.5c-.1 0-.3.1-.4.2h-.6Zm3.2-.5h.6v.5H56c-.2 0-.4 0-.6-.1-.2 0-.3-.2-.4-.4-.1-.2-.2-.4-.2-.7v-2.3h-.6V81l.6-.2.2-.9h.4v.9h1.1v.5h-1.1v2.3c0 .2 0 .4.2.6.1.1.3.2.5.2Zm1.6-5h.3c.1 0 .1.2.1.3s0 .2-.1.3-.2 0-.3 0h-.3c-.1 0-.1-.2-.1-.3s0-.2.1-.3.2 0 .3 0Zm.3 1.5v3.9h-.6v-3.9h.6Zm4.7 1.9c0 .3 0 .6-.1.9s-.2.5-.4.6c-.2.2-.3.3-.6.4s-.5.1-.8.1-.5 0-.7-.1-.4-.2-.6-.4c-.2-.2-.3-.4-.4-.6 0-.3-.1-.5-.1-.9s0-.8.2-1.1.4-.5.6-.7c.3-.2.6-.2 1-.2s.7 0 .9.2c.3.2.5.4.6.7.1.3.2.7.2 1.1Zm-3 0c0 .3 0 .6.1.8 0 .2.2.4.4.5.2.1.4.2.7.2s.5 0 .7-.2c.2-.1.3-.3.4-.5s.1-.5.1-.8 0-.6-.1-.8c0-.2-.2-.4-.4-.5s-.4-.2-.7-.2c-.4 0-.7.1-.9.4-.2.3-.3.6-.3 1.1Zm5.8-2c.5 0 .8.1 1.1.3.2.2.4.6.4 1.1v2.6h-.6v-2.5c0-.3 0-.6-.2-.7-.1-.2-.4-.2-.7-.2s-.7.1-.9.4c-.2.2-.3.6-.3 1.1v2.1h-.6V81h.5v.6h.1c0-.1.2-.3.3-.3.1 0 .3-.2.4-.2h.5Zm8 4-.6-1.7h-2.1l-.6 1.7h-.6l2-5.3h.5l2 5.3h-.6Zm-.9-2.2-.6-1.7V80v.8l-.6 1.7h1.7Zm3.9-1.8h.4v.6H76c-.1 0-.3.2-.4.3s-.2.3-.2.4v2.7h-.6v-3.9h.5v.7c0-.1.2-.3.3-.4.1-.1.2-.2.4-.3.2 0 .3-.1.5-.1Zm2.7 0c.3 0 .6 0 .9.2.2.1.4.4.5.6.1.3.2.6.2.9v.4h-2.7c0 .5.1.8.3 1.1.2.2.5.4.9.4h.7c.2 0 .4-.1.6-.2v.5c-.2 0-.4.2-.6.2h-.7c-.4 0-.7 0-1-.2-.3-.2-.5-.4-.7-.7-.2-.3-.2-.7-.2-1.1s0-.8.2-1.1c.1-.3.3-.5.6-.7.3-.2.6-.2.9-.2Zm0 .5c-.3 0-.6.1-.8.3-.2.2-.3.5-.3.9h2.1c0-.2 0-.4-.1-.6s-.2-.3-.3-.4c-.1 0-.3-.1-.6-.1Zm4.1-.5c.5 0 .8.1 1 .3.2.2.3.5.3 1v2.7h-.4v-.6h-.1c-.1.1-.2.3-.3.4s-.3.2-.4.2h-.6c-.3 0-.5 0-.6-.1s-.3-.2-.4-.4c-.1-.2-.2-.4-.2-.6 0-.4.2-.7.5-.9.3-.2.8-.3 1.4-.3h.7v-.3c0-.3 0-.6-.2-.7-.1-.1-.4-.2-.6-.2h-.6c-.2 0-.4.1-.5.2l-.2-.5c.2 0 .4-.2.6-.2h.7Zm.8 2.1h-.6c-.5 0-.8.1-1 .3-.2.1-.3.3-.3.6s0 .4.2.5c.1.1.3.2.5.2.3 0 .6 0 .9-.3.2-.2.3-.5.3-.9v-.4Zm8 1.9-.8-2h-2.6l-.8 2h-.8l2.5-6.5h.7l2.5 6.5H92Zm-1-2.7-.8-2v-.3c0-.1 0-.2-.1-.4s0-.2-.1-.3v1l-.8 2h2.1Zm121.7-2.8c-.3 0-.5 0-.8.1-.2 0-.4.2-.6.4s-.3.4-.4.7c0 .3-.1.6-.1.9s0 .8.2 1.1c.1.3.3.6.6.8s.6.3 1 .3h.7c.2 0 .4 0 .6-.1v.5c-.2 0-.4.1-.6.2h-.7c-.5 0-1-.1-1.3-.3-.4-.2-.6-.5-.8-.9s-.3-.9-.3-1.4 0-.8.2-1.1c.1-.3.3-.6.5-.8.2-.2.5-.4.8-.6s.7-.2 1.1-.2h.8c.2 0 .5.1.7.2l-.2.5c-.2 0-.4-.1-.5-.2h-.6Zm5.7 2.8c0 .3 0 .6-.1.9 0 .3-.2.5-.4.6-.2.2-.3.3-.6.4-.2 0-.5.1-.8.1s-.5 0-.7-.1c-.2 0-.4-.2-.6-.4-.2-.2-.3-.4-.4-.6s-.1-.5-.1-.9 0-.8.2-1.1.4-.5.6-.7c.3-.2.6-.2 1-.2s.7 0 .9.2c.3.2.5.4.6.7s.2.7.2 1.1Zm-3 0c0 .3 0 .6.1.8s.2.4.4.5c.2.1.4.2.7.2s.5 0 .7-.2c.2-.1.3-.3.4-.5 0-.2.1-.5.1-.8s0-.6-.1-.8c0-.2-.2-.4-.4-.5-.2-.1-.4-.2-.7-.2-.4 0-.7.1-.9.4s-.3.6-.3 1.1Zm5.9-2.1c.5 0 .8.1 1.1.3.2.2.4.6.4 1.1v2.6h-.6v-2.5c0-.3 0-.6-.2-.7-.1-.2-.4-.2-.7-.2s-.7.1-.9.4c-.2.2-.3.6-.3 1.1v2.1h-.6v-3.9h.5v.6h.1c0-.1.2-.3.3-.3.1 0 .3-.2.4-.2h.5Zm5.1 3c0 .3 0 .5-.2.6-.1.2-.3.3-.5.4-.2 0-.5.1-.8.1h-.7c-.2 0-.4-.1-.5-.2v-.5c.2 0 .4.2.6.2h.7c.3 0 .6 0 .7-.2.2-.1.2-.3.2-.4v-.3s-.2-.2-.3-.2c-.1 0-.3-.2-.6-.3-.2 0-.5-.2-.6-.3-.2 0-.3-.2-.4-.3 0-.1-.1-.3-.1-.5 0-.3.1-.6.4-.8s.6-.3 1.1-.3h.7c.2 0 .4.1.6.2l-.2.5c-.2 0-.3-.1-.5-.2s-.4 0-.6 0c-.3 0-.5 0-.6.1-.1 0-.2.2-.2.4s0 .2.1.3c0 0 .2.2.3.2s.3.2.6.2c.2 0 .5.2.6.3s.3.2.4.4c0 .1.1.3.1.5Zm2.3.6h.6v.5h-.7c-.2 0-.4 0-.6-.1-.2 0-.3-.2-.4-.4-.1-.2-.2-.4-.2-.7v-2.3h-.6v-.3l.6-.2.2-.9h.4v.9h1.1v.5h-1.1v2.3c0 .2 0 .4.2.6.1.1.3.2.5.2Zm3.1-3.6h.4v.6h-.9c-.1 0-.3.2-.4.3-.1.1-.2.3-.2.4v2.7h-.6V80h.5v.7c0-.1.2-.3.3-.4.1-.1.2-.2.4-.3.2 0 .3-.1.5-.1Zm4.4.1v3.9h-.5v-.6h-.1c0 .1-.2.3-.3.3-.1 0-.3.2-.4.2h-.5c-.3 0-.6 0-.8-.2-.2 0-.4-.3-.5-.5-.1-.2-.2-.5-.2-.8v-2.6h.6v2.5c0 .3 0 .6.2.7.1.2.4.2.7.2s.5 0 .7-.2c.2-.1.3-.3.4-.5 0-.2.1-.5.1-.8v-2.1h.6Zm2.9 4c-.4 0-.7 0-.9-.2s-.5-.4-.6-.7c-.2-.3-.2-.7-.2-1.1s0-.9.2-1.2c.2-.3.4-.5.7-.7s.6-.2 1-.2h.6c.2 0 .3 0 .4.1l-.2.5c-.1 0-.3 0-.4-.1s-.3 0-.4 0c-.3 0-.5 0-.7.2-.2.1-.3.3-.4.5 0 .2-.1.5-.1.8s0 .6.1.8c0 .2.2.4.4.5s.4.2.6.2h.6c.2 0 .3 0 .5-.2v.5c-.1 0-.3.1-.4.2h-.6Zm3.2-.5h.6v.5h-.7c-.2 0-.4 0-.6-.1-.2 0-.3-.2-.4-.4-.1-.2-.2-.4-.2-.7v-2.3h-.6v-.3l.6-.2.2-.9h.4v.9h1.1v.5h-1.1v2.3c0 .2 0 .4.2.6.1.1.3.2.5.2Zm1.6-5h.3c.1 0 .1.2.1.3s0 .2-.1.3-.2 0-.3 0h-.3s-.1-.2-.1-.3 0-.2.1-.3h.3Zm.3 1.5v3.9h-.6V80h.6Zm4.7 2c0 .3 0 .6-.1.9 0 .3-.2.5-.4.6-.2.2-.3.3-.6.4-.2 0-.5.1-.8.1s-.5 0-.7-.1c-.2 0-.4-.2-.6-.4-.2-.2-.3-.4-.4-.6 0-.3-.1-.5-.1-.9s0-.8.2-1.1c.1-.3.4-.5.6-.7.3-.2.6-.2 1-.2s.7 0 .9.2c.3.2.5.4.6.7.1.3.2.7.2 1.1Zm-3 0c0 .3 0 .6.1.8 0 .2.2.4.4.5.2.1.4.2.7.2s.5 0 .7-.2c.2-.1.3-.3.4-.5s.1-.5.1-.8 0-.6-.1-.8c0-.2-.2-.4-.4-.5s-.4-.2-.7-.2c-.4 0-.7.1-.9.4s-.3.6-.3 1.1Zm5.9-2.1c.5 0 .8.1 1.1.3.2.2.4.6.4 1.1v2.6h-.6v-2.5c0-.3 0-.6-.2-.7-.1-.2-.4-.2-.7-.2s-.7.1-.9.4c-.2.2-.3.6-.3 1.1v2.1h-.6v-3.9h.5v.6h.1c0-.1.2-.3.3-.3.1 0 .3-.2.4-.2h.5Zm7.9 4-.6-1.7h-2.1l-.6 1.7h-.6l2-5.3h.5l2 5.3h-.6Zm-.9-2.2-.6-1.7v-.8.8l-.6 1.7h1.7Zm3.9-1.8h.4v.6h-.9c-.1 0-.3.2-.4.3-.1.1-.2.3-.2.4v2.7h-.6V80h.5v.7c0-.1.2-.3.3-.4.1-.1.2-.2.4-.3.2 0 .3-.1.5-.1Zm2.7 0c.3 0 .6 0 .9.2.2.1.4.4.5.6.1.3.2.6.2.9v.4h-2.7c0 .5.1.8.3 1.1.2.2.5.4.9.4h.7c.2 0 .4-.1.6-.2v.5c-.2 0-.4.2-.6.2h-.7c-.4 0-.7 0-1-.2s-.5-.4-.7-.7c-.2-.3-.2-.7-.2-1.1s0-.8.2-1.1c.1-.3.3-.5.6-.7s.6-.2.9-.2Zm0 .5c-.3 0-.6.1-.8.3-.2.2-.3.5-.3.9h2.1c0-.2 0-.4-.1-.6s-.2-.3-.3-.4c-.1 0-.3-.1-.6-.1Zm4.1-.5c.5 0 .8.1 1 .3.2.2.3.5.3 1v2.7h-.4v-.6h-.1c-.1.1-.2.3-.3.4-.1 0-.3.2-.4.2h-.6c-.3 0-.5 0-.6-.1s-.3-.2-.4-.4c-.1-.2-.2-.4-.2-.6 0-.4.2-.7.5-.9s.8-.3 1.4-.3h.7v-.3c0-.3 0-.6-.2-.7-.1-.1-.4-.2-.6-.2h-.6c-.2 0-.4.1-.5.2l-.2-.5c.2 0 .4-.2.6-.2h.7Zm.8 2.1h-.6c-.5 0-.8.1-1 .3-.2.1-.3.3-.3.6s0 .4.2.5c.1.1.3.2.5.2.3 0 .6 0 .9-.3.2-.2.3-.5.3-.9V82Zm4.6-4.9h1.9c.9 0 1.5.1 1.9.4.4.3.6.7.6 1.3s0 .5-.2.7-.2.4-.4.5-.4.2-.7.3c.3 0 .6.2.8.3.2.1.4.3.5.5.1.2.2.5.2.9s0 .8-.3 1.1c-.2.3-.5.5-.8.7s-.8.2-1.3.2h-2.4v-6.9Zm.8 2.9h1.3c.6 0 1 0 1.2-.3s.3-.5.3-.9-.1-.7-.4-.8-.7-.3-1.3-.3h-1.2V80Zm0 .7v2.6h1.4c.6 0 1-.1 1.3-.4.3-.2.4-.6.4-1s0-.5-.2-.7c-.1-.2-.3-.3-.6-.4s-.6-.1-1-.1h-1.4ZM195.3 18c-.2 0-.4 0-.6.1-.2 0-.3.2-.4.4-.1.2-.2.3-.3.6v.7c0 .2 0 .7.1.9 0 .3.2.5.4.6.2.1.4.2.7.2h.6c.2 0 .4-.1.7-.2v.9c-.2 0-.5.2-.7.2h-.8c-.5 0-1-.1-1.3-.3-.3-.2-.6-.5-.8-.9s-.3-.9-.3-1.4 0-.8.2-1.1.3-.6.5-.9c.2-.2.5-.4.8-.6.3-.1.7-.2 1.1-.2h.8c.3 0 .5.2.8.3l-.4.9c-.2 0-.4-.2-.6-.2-.2 0-.4-.1-.6-.1Zm6 2.4c0 .3 0 .6-.1.9 0 .3-.2.5-.4.7-.2.2-.4.3-.6.4s-.5.1-.8.1-.5 0-.8-.1-.4-.2-.6-.4c-.2-.2-.3-.4-.4-.7 0-.3-.1-.6-.1-.9s0-.8.2-1.1c.2-.3.4-.5.7-.7.3-.2.6-.2 1-.2s.7 0 1 .2c.3.2.5.4.7.7.2.3.2.7.2 1.1Zm-2.7 0v.7c0 .2.1.3.3.4.1 0 .3.1.5.1s.4 0 .5-.1.2-.2.3-.4v-1.4c0-.2-.1-.3-.3-.4-.1 0-.3-.1-.5-.1-.3 0-.5 0-.6.3-.1.2-.2.5-.2.9Zm5.9-2.1c.4 0 .8.1 1 .3.3.2.4.6.4 1.1v2.6h-1.1V20c0-.3 0-.5-.2-.6-.1-.1-.3-.2-.5-.2-.3 0-.6.1-.7.3-.1.2-.2.6-.2 1v1.9h-1.1v-4h.8v.5h.2c0-.1.2-.3.3-.3.1 0 .3-.1.4-.2h.5Zm5.3 2.9c0 .3 0 .5-.2.7-.1.2-.3.3-.6.4s-.6.1-.9.1h-.7c-.2 0-.4 0-.6-.2v-.9c.2 0 .5.2.7.2h1.2s.1-.1.1-.2v-.2l-.2-.2c-.1 0-.3-.2-.6-.3-.3-.1-.5-.2-.6-.3s-.3-.2-.4-.4-.1-.3-.1-.6c0-.4.1-.6.4-.8s.7-.3 1.2-.3h.7c.2 0 .5.1.7.2l-.3.8c-.2 0-.4-.2-.6-.2h-.9s-.1.1-.1.2v.2l.2.2c.1.1.3.1.5.2.2 0 .4.2.6.3.2.1.3.2.4.4 0 .1.1.3.1.6Zm2.6.4h.6v.8c-.1 0-.3 0-.4.1h-.6c-.2 0-.5 0-.6-.1-.2 0-.3-.2-.4-.4-.1-.2-.2-.5-.2-.8v-1.9h-.5v-.5l.6-.4.3-.8h.7v.9h1.1v.8h-1.1v1.9c0 .2 0 .3.1.3s.2.1.3.1Zm3.7-3.3h.4v1h-.8c-.1 0-.3 0-.4.2-.1 0-.2.2-.2.3v2.5H214v-4h.8l.2.7c0-.1.2-.3.3-.4.1-.1.3-.2.4-.3s.3-.1.5-.1Zm4.8.1v4h-.8v-.5h-.2c0 .1-.2.2-.3.3s-.3.1-.4.2-.3 0-.5 0c-.3 0-.5 0-.7-.2-.2-.1-.4-.3-.5-.5s-.2-.5-.2-.8v-2.6h1.1v2.3c0 .3 0 .5.2.6.1.1.3.2.5.2s.4 0 .5-.2.2-.3.3-.4v-2.6h1.1Zm2.8 4.1c-.4 0-.7 0-1-.2-.3-.1-.5-.4-.6-.7-.1-.3-.2-.7-.2-1.2s0-.9.2-1.2c.2-.3.4-.5.7-.7s.6-.2 1-.2h.7c.2 0 .4.1.5.2l-.3.8c-.2 0-.3-.1-.5-.2h-.4c-.1 0-.3 0-.5.1-.1 0-.2.2-.3.4v.7c0 .3 0 .5.1.7 0 .2.2.3.3.4.1 0 .3.1.5.1h.6c.2 0 .3-.1.5-.3v.9c-.2.1-.3.2-.5.2h-.7Zm3.8-.9h.6v.8c-.1 0-.3 0-.4.1h-.6c-.2 0-.5 0-.6-.1-.2 0-.3-.2-.4-.4s-.2-.5-.2-.8v-1.9h-.5v-.5l.6-.4.3-.8h.7v.9h1.1v.8H227v1.9c0 .2 0 .3.1.3s.2.1.3.1Zm2-4.8c.2 0 .3 0 .4.1s.2.2.2.4 0 .3-.2.4c-.1 0-.3.1-.4.1s-.3 0-.4-.1c-.1 0-.2-.2-.2-.4s0-.3.2-.4c.1 0 .3-.1.4-.1Zm.6 1.6v4H229v-4h1.1Zm4.8 2c0 .3 0 .6-.1.9 0 .3-.2.5-.4.7-.2.2-.4.3-.6.4-.2 0-.5.1-.8.1s-.5 0-.8-.1c-.2 0-.4-.2-.6-.4s-.3-.4-.4-.7c0-.3-.1-.6-.1-.9s0-.8.2-1.1c.2-.3.4-.5.7-.7.3-.2.6-.2 1-.2s.7 0 1 .2c.3.2.5.4.7.7.2.3.2.7.2 1.1Zm-2.8 0v.7c0 .2.1.3.3.4.1 0 .3.1.5.1s.4 0 .5-.1c.1 0 .2-.2.3-.4v-1.4c0-.2-.1-.3-.3-.4-.1 0-.3-.1-.5-.1-.3 0-.5 0-.6.3-.1.2-.2.5-.2.9Zm5.9-2.1c.4 0 .8.1 1 .3s.4.6.4 1.1v2.6h-1.1V20c0-.3 0-.5-.2-.6s-.3-.2-.5-.2c-.3 0-.6.1-.7.3-.1.2-.2.6-.2 1v1.9h-1.1v-4h.8v.5h.2c0-.1.2-.3.3-.3s.3-.1.4-.2h.5Zm6.8-.3c-.2 0-.4 0-.6.1-.2 0-.3.2-.4.4-.1.2-.2.3-.3.6s0 .5 0 .7 0 .7.1.9c0 .3.2.5.4.6.2.1.4.2.7.2h.6c.2 0 .4-.1.7-.2v.9c-.2 0-.5.2-.7.2h-.8c-.5 0-1-.1-1.3-.3-.3-.2-.6-.5-.8-.9s-.2-.9-.2-1.4 0-.8.2-1.1.3-.6.5-.9c.2-.2.5-.4.8-.6.3-.1.7-.2 1.1-.2h.8c.3 0 .5.2.8.3l-.4.9c-.2 0-.4-.2-.6-.2-.2 0-.4-.1-.6-.1Zm3.4 4.4h-1.1v-5.6h1.1v5.6Zm4.8-2c0 .3 0 .6-.1.9 0 .3-.2.5-.4.7s-.4.3-.6.4c-.2 0-.5.1-.8.1s-.5 0-.8-.1c-.2 0-.4-.2-.6-.4-.2-.2-.3-.4-.4-.7 0-.3-.1-.6-.1-.9s0-.8.2-1.1c.2-.3.4-.5.7-.7s.6-.2 1-.2.7 0 1 .2.5.4.7.7c.2.3.2.7.2 1.1Zm-2.7 0v.7c0 .2.1.3.3.4s.3.1.5.1.3 0 .5-.1c.1 0 .2-.2.3-.4v-1.4c0-.2-.1-.3-.3-.4s-.3-.1-.5-.1c-.3 0-.5 0-.6.3-.1.2-.2.5-.2.9Zm6.4.8c0 .3 0 .5-.2.7-.1.2-.3.3-.6.4s-.6.1-.9.1h-.7c-.2 0-.4 0-.6-.2v-.9c.2 0 .5.2.7.2h1.2s.1-.1.1-.2v-.2c0-.1-.1-.1-.2-.2-.1 0-.3-.2-.6-.3-.3-.1-.5-.2-.6-.3s-.3-.2-.4-.4c0-.1-.1-.3-.1-.6 0-.4.1-.6.4-.8.3-.2.7-.3 1.2-.3h.7c.2 0 .5.1.7.2l-.3.8c-.2 0-.4-.2-.6-.2h-.9c-.1 0-.1.1-.1.2v.2l.2.2c.1 0 .3.1.5.2.2 0 .4.2.6.3s.3.2.4.4.1.3.1.6Zm4.5-2.8v4h-.8v-.5h-.2c0 .1-.2.2-.3.3s-.3.1-.4.2-.3 0-.5 0c-.3 0-.5 0-.7-.2-.2-.1-.4-.3-.5-.5s-.2-.5-.2-.8v-2.6h1.1v2.3c0 .3 0 .5.2.6.1.1.3.2.5.2s.4 0 .5-.2.2-.3.3-.4v-2.6h1.1Zm3.4-.1h.4v1h-.8c-.1 0-.3 0-.4.2-.1 0-.2.2-.2.3v2.5h-1.1v-4h.8l.2.7c0-.1.2-.3.3-.4.1-.1.3-.2.4-.3s.3-.1.5-.1Zm2.8 0c.4 0 .7 0 1 .2.3.1.5.3.6.6s.2.6.2 1v.5h-2.6c0 .3.1.5.3.7.2.2.4.3.7.3h.7c.2 0 .4-.1.7-.2v.8c-.2 0-.4.2-.6.2h-.8c-.3 0-.8 0-1.1-.2-.3-.1-.6-.4-.7-.7-.2-.3-.3-.7-.3-1.1s0-.9.2-1.2c.2-.3.4-.5.7-.7s.6-.2 1-.2Zm0 .8c-.2 0-.4 0-.5.2s-.2.3-.2.6h1.5v-.4c0-.1-.1-.2-.3-.3-.1 0-.3-.1-.4-.1Zm6.7 3.3H273v-4.3h-1.4v-.9h4v.9h-1.4v4.3Zm2.7-5.6c.2 0 .3 0 .4.1s.2.2.2.4 0 .3-.2.4c-.1 0-.3.1-.4.1s-.3 0-.4-.1c-.1 0-.2-.2-.2-.4s0-.3.2-.4c.1 0 .3-.1.4-.1Zm.5 1.6v4h-1.1v-4h1.1Zm5.8-.1c.5 0 .8.1 1 .3.2.2.3.6.3 1.1v2.6h-1.1V20c0-.3 0-.5-.1-.6 0-.1-.2-.2-.5-.2s-.5.1-.6.3c-.1.2-.2.5-.2.9v2h-1.1v-2.8c0-.1-.1-.2-.2-.3h-.3c-.2 0-.4 0-.5.2s-.2.2-.2.4v2.6h-1.1v-4h.8v.5h.2c0-.1.2-.3.3-.3s.3-.1.4-.2h.5c.3 0 .5 0 .7.1s.4.2.5.4c.1-.2.3-.4.5-.4s.4-.1.7-.1Zm4.2 0c.4 0 .7 0 1 .2.3.1.5.3.6.6s.2.6.2 1v.5h-2.6c0 .3.1.5.3.7.2.2.4.3.7.3h.7c.2 0 .4-.1.7-.2v.8c-.2 0-.4.2-.6.2h-.8c-.3 0-.8 0-1.1-.2-.3-.1-.6-.4-.7-.7-.2-.3-.3-.7-.3-1.1s0-.9.2-1.2c.2-.3.4-.5.7-.7s.6-.2 1-.2Zm0 .8c-.2 0-.4 0-.5.2s-.2.3-.2.6h1.5v-.4c0-.1-.1-.2-.2-.3-.1 0-.3-.1-.4-.1Zm5.5 2.1c0 .3 0 .5-.2.7-.1.2-.3.3-.6.4s-.6.1-.9.1h-.7c-.2 0-.4 0-.6-.2v-.9c.2 0 .5.2.7.2h1.2s.1-.1.1-.2v-.2c0-.1-.1-.1-.2-.2-.1 0-.3-.2-.6-.3-.3-.1-.5-.2-.6-.3s-.3-.2-.4-.4c0-.1-.1-.3-.1-.6 0-.4.1-.6.4-.8.3-.2.7-.3 1.2-.3h.7c.2 0 .5.1.7.2l-.3.8c-.2 0-.4-.2-.6-.2h-.9c-.1 0-.1.1-.1.2v.2l.2.2c.1 0 .3.1.5.2.2 0 .4.2.6.3s.3.2.4.4.1.3.1.6Zm-120.2 9.2c0-.4 0-.8.1-1.2 0-.4.2-.7.4-1.1.2-.3.4-.7.6-1h.6c-.3.5-.6 1-.8 1.5-.2.6-.3 1.1-.3 1.7s0 .8.1 1.1c0 .4.2.7.3 1.1s.3.7.6 1h-.6l-.6-.9c-.2-.3-.3-.7-.4-1.1 0-.4-.1-.8-.1-1.2Zm5 .9c0 .3 0 .5-.2.6-.1.2-.3.3-.5.4-.2 0-.5.1-.8.1h-.7c-.2 0-.4-.1-.5-.2v-.5c.2 0 .4.2.6.2h.7c.3 0 .6 0 .7-.2.2-.1.2-.3.2-.4V31c0-.1-.2-.2-.3-.2-.1 0-.3-.2-.6-.3-.3 0-.5-.2-.6-.3-.2 0-.3-.2-.4-.3s-.1-.3-.1-.5c0-.3.1-.6.4-.8s.6-.3 1.1-.3h.7c.2 0 .4.1.6.2l-.2.5c-.2 0-.3-.1-.5-.2h-.6c-.3 0-.5 0-.6.1-.1 0-.2.2-.2.4s0 .2.1.3c0 0 .2.2.3.2.2 0 .3.2.6.2.2 0 .5.2.6.3.2 0 .3.2.4.4 0 .1.1.3.1.5Zm4.2-2.8v3.9h-.5v-.6h-.1c0 .1-.2.3-.3.3-.1 0-.3.2-.4.2h-.5c-.3 0-.6 0-.8-.2-.2 0-.4-.3-.5-.5-.1-.2-.2-.5-.2-.8v-2.6h.6v2.5c0 .3 0 .6.2.7s.4.2.7.2.5 0 .7-.2c.2-.1.3-.3.4-.5 0-.2.1-.5.1-.8V28h.6Zm1.8-1.7v2.3c.1-.2.3-.3.5-.4.2-.1.5-.2.8-.2.5 0 .9.2 1.2.5s.4.8.4 1.5 0 .8-.2 1.1c-.1.3-.3.5-.6.7s-.5.2-.9.2-.6 0-.8-.2c-.2-.1-.4-.3-.5-.4v.5h-.6v-5.6h.6Zm1.2 2.1c-.3 0-.5 0-.7.2-.2.1-.3.3-.4.5 0 .2-.1.5-.1.8 0 .5 0 .9.2 1.2s.5.4.9.4.6-.1.8-.4.3-.6.3-1.1 0-.9-.3-1.1c-.2-.3-.5-.4-.8-.4Zm2.3 5.2h-.5v-.5h.5c.2 0 .3 0 .4-.1s.2-.3.2-.5v-4.6h.6v4.5c0 .2 0 .4-.1.6 0 .2-.2.3-.4.4s-.4.1-.6.1Zm.4-6.7c0-.1 0-.2.1-.3s.2 0 .3 0h.3c.1 0 .1.2.1.3s0 .2-.1.3-.2 0-.3 0h-.3c-.1 0-.1-.2-.1-.3Zm3.4 1c.3 0 .6 0 .9.2.2.1.4.4.5.6.1.3.2.6.2.9v.4h-2.7c0 .5.1.8.3 1.1.2.2.5.4.9.4h.7c.2 0 .4-.1.6-.2v.5c-.2 0-.4.2-.6.2h-.7c-.4 0-.7 0-1-.2-.3-.2-.5-.4-.7-.7-.2-.3-.2-.7-.2-1.1s0-.8.2-1.1c.1-.3.3-.5.6-.7.3-.2.6-.2.9-.2Zm0 .5c-.3 0-.6.1-.8.3-.2.2-.3.5-.3.9h2.1c0-.2 0-.4-.1-.6s-.2-.3-.3-.4c-.1 0-.3-.1-.6-.1Zm4.2 3.6c-.4 0-.7 0-.9-.2s-.5-.4-.6-.7c-.2-.3-.2-.7-.2-1.1s0-.9.2-1.2.4-.5.7-.7.6-.2 1-.2h.6c.2 0 .3 0 .4.1l-.2.5c-.1 0-.3 0-.4-.1s-.3 0-.4 0c-.3 0-.5 0-.7.2s-.3.3-.4.5-.1.5-.1.8 0 .6.1.8c0 .2.2.4.4.5.2.1.4.2.6.2h.6c.2 0 .3 0 .5-.2v.5c-.1 0-.3.1-.4.2h-.6Zm3.2-.5h.6v.5h-.7c-.2 0-.4 0-.6-.1-.2 0-.3-.2-.4-.4-.1-.2-.2-.4-.2-.7V29h-.6v-.3l.6-.2.2-.9h.4v.9h1.1v.5h-1.1v2.3c0 .2 0 .4.2.6.1.1.3.2.5.2Zm4.5 0h.6v.5h-.7c-.2 0-.4 0-.6-.1-.2 0-.3-.2-.4-.4-.1-.2-.2-.4-.2-.7V29h-.6v-.3l.6-.2.2-.9h.4v.9h1.1v.5h-1.1v2.3c0 .2 0 .4.2.6.1.1.3.2.5.2Zm4.7-1.6c0 .3 0 .6-.1.9s-.2.5-.4.6c-.2.2-.3.3-.6.4s-.5.1-.8.1-.5 0-.7-.1-.4-.2-.6-.4c-.2-.2-.3-.4-.4-.6 0-.3-.1-.5-.1-.9s0-.8.2-1.1.4-.5.6-.7c.3-.2.6-.2 1-.2s.7 0 .9.2c.3.2.5.4.6.7.1.3.2.7.2 1.1Zm-3 0c0 .3 0 .6.1.8 0 .2.2.4.4.5.2.1.4.2.7.2s.5 0 .7-.2c.2-.1.3-.3.4-.5s.1-.5.1-.8 0-.6-.1-.8c0-.2-.2-.4-.4-.5s-.4-.2-.7-.2c-.4 0-.7.1-.9.4-.2.3-.3.6-.3 1.1Zm7.2 1.6h.6v.5h-.7c-.2 0-.4 0-.6-.1-.2 0-.3-.2-.4-.4-.1-.2-.2-.4-.2-.7V29h-.6v-.3l.6-.2.2-.9h.4v.9h1.1v.5H211v2.3c0 .2 0 .4.2.6.1.1.3.2.5.2Zm2-5.2v2.3c0-.1.2-.3.3-.3.1 0 .3-.2.4-.2h.5c.3 0 .6 0 .8.2s.4.3.5.5c.1.2.2.5.2.8v2.6h-.6v-2.5c0-.3 0-.6-.2-.7-.1-.2-.4-.2-.7-.2s-.5 0-.7.2c-.2.1-.3.3-.4.5s-.1.5-.1.8v2.1h-.6v-5.6h.6Zm5.4 1.6c.3 0 .6 0 .9.2.2.1.4.4.5.6.1.3.2.6.2.9v.4H218c0 .5.1.8.3 1.1.2.2.5.4.9.4h.7c.2 0 .4-.1.6-.2v.5c-.2 0-.4.2-.6.2h-.7c-.4 0-.7 0-1-.2-.3-.2-.5-.4-.7-.7-.2-.3-.2-.7-.2-1.1s0-.8.2-1.1c.1-.3.3-.5.6-.7s.6-.2.9-.2Zm0 .5c-.3 0-.6.1-.8.3-.2.2-.3.5-.3.9h2.1c0-.2 0-.4-.1-.6s-.2-.3-.3-.4c-.1 0-.3-.1-.6-.1Zm6-.5c.5 0 .8.1 1 .3s.3.5.3 1v2.7h-.4v-.6h-.1c-.1.1-.2.3-.3.4s-.3.2-.4.2h-.6c-.3 0-.5 0-.6-.1-.2 0-.3-.2-.4-.4-.1-.2-.2-.4-.2-.6 0-.4.2-.7.5-.9s.8-.3 1.4-.3h.7v-.3c0-.3 0-.6-.2-.7-.1-.1-.4-.2-.6-.2h-.6c-.2 0-.4.1-.5.2l-.2-.5c.2 0 .4-.2.6-.2h.7Zm.8 2h-.6c-.5 0-.8.1-1 .3-.2.1-.3.3-.3.6s0 .4.2.5c.1.1.3.2.5.2.3 0 .6 0 .9-.3.2-.2.3-.5.3-.9v-.4Zm3.6-2c.5 0 .8.1 1.1.3.2.2.4.6.4 1.1v2.6h-.6v-2.5c0-.3 0-.6-.2-.7-.1-.2-.4-.2-.7-.2s-.7.1-.9.4c-.2.2-.3.6-.3 1.1v2.1h-.6v-3.9h.5v.6h.1c0-.1.2-.3.3-.3.1 0 .3-.2.4-.2h.5Zm4.5 0c.5 0 .8.1 1.1.3.2.2.4.6.4 1.1v2.6h-.6v-2.5c0-.3 0-.6-.2-.7-.1-.2-.4-.2-.7-.2s-.7.1-.9.4c-.2.2-.3.6-.3 1.1v2.1h-.6v-3.9h.5v.6h.1c0-.1.2-.3.3-.3.1 0 .3-.2.4-.2h.5Zm6 2c0 .3 0 .6-.1.9 0 .3-.2.5-.4.6-.2.2-.3.3-.6.4-.2 0-.5.1-.8.1s-.5 0-.7-.1c-.2 0-.4-.2-.6-.4-.2-.2-.3-.4-.4-.6s-.1-.5-.1-.9 0-.8.2-1.1.4-.5.6-.7c.3-.2.6-.2 1-.2s.7 0 .9.2c.3.2.5.4.6.7s.2.7.2 1.1Zm-2.9 0c0 .3 0 .6.1.8s.2.4.4.5c.2.1.4.2.7.2s.5 0 .7-.2c.2-.1.3-.3.4-.5 0-.2.1-.5.1-.8s0-.6-.1-.8c0-.2-.2-.4-.4-.5-.2-.1-.4-.2-.7-.2-.4 0-.7.1-.9.4s-.3.6-.3 1.1Zm7.2-1.9v3.9h-.5v-.6h-.1c0 .1-.2.3-.3.3-.1 0-.3.2-.4.2h-.5c-.3 0-.6 0-.8-.2-.2 0-.4-.3-.5-.5-.1-.2-.2-.5-.2-.8v-2.6h.6v2.5c0 .3 0 .6.2.7.1.2.4.2.7.2s.5 0 .7-.2c.2-.1.3-.3.4-.5 0-.2.1-.5.1-.8V28h.6Zm3.1-.1c.5 0 .8.1 1.1.3.2.2.4.6.4 1.1v2.6h-.6v-2.5c0-.3 0-.6-.2-.7-.1-.2-.4-.2-.7-.2s-.7.1-.9.4c-.2.2-.3.6-.3 1.1v2.1h-.6v-3.9h.5v.6h.1c0-.1.2-.3.3-.3.1 0 .3-.2.4-.2h.5Zm4.2 4.1c-.4 0-.7 0-.9-.2s-.5-.4-.6-.7c-.2-.3-.2-.7-.2-1.1s0-.9.2-1.2c.2-.3.4-.5.7-.7s.6-.2 1-.2h.6c.2 0 .3 0 .4.1l-.2.5c-.1 0-.3 0-.4-.1s-.3 0-.4 0c-.3 0-.5 0-.7.2-.2.1-.3.3-.4.5 0 .2-.1.5-.1.8s0 .6.1.8.2.4.4.5c.2.1.4.2.6.2h.6c.2 0 .3 0 .5-.2v.5c-.1 0-.3.1-.4.2h-.6Zm3.5-4.1c.3 0 .6 0 .9.2.2.1.4.4.5.6.1.3.2.6.2.9v.4H254c0 .5.1.8.3 1.1.2.2.5.4.9.4h.7c.2 0 .4-.1.6-.2v.5c-.2 0-.4.2-.6.2h-.7c-.4 0-.7 0-1-.2-.3-.2-.5-.4-.7-.7-.2-.3-.2-.7-.2-1.1s0-.8.2-1.1c.1-.3.3-.5.6-.7s.6-.2.9-.2Zm0 .5c-.3 0-.6.1-.8.3-.2.2-.3.5-.3.9h2.1c0-.2 0-.4-.1-.6s-.2-.3-.3-.4c-.1 0-.3-.1-.6-.1Zm6.9-.5c.4 0 .8.1 1 .3s.3.6.3 1.1v2.6h-.6v-2.5c0-.3 0-.6-.2-.7-.1-.2-.3-.2-.6-.2s-.7.1-.8.3c-.2.2-.3.5-.3 1v2.2h-.6v-3c0-.1-.2-.2-.3-.3-.1 0-.3-.1-.5-.1-.3 0-.5 0-.6.2-.2.1-.3.3-.3.5s-.1.5-.1.8v2.1h-.6v-3.9h.5v.6h.1c0-.1.2-.2.3-.3.1 0 .3-.2.4-.2h.5c.3 0 .5 0 .8.2.2.1.3.3.4.5.1-.2.3-.4.5-.5.2-.1.5-.2.7-.2Zm4 0c.3 0 .6 0 .9.2.2.1.4.4.5.6.1.3.2.6.2.9v.4h-2.7c0 .5.1.8.3 1.1.2.2.5.4.9.4h.7c.2 0 .4-.1.6-.2v.5c-.2 0-.4.2-.6.2h-.7c-.4 0-.7 0-1-.2s-.5-.4-.7-.7c-.2-.3-.2-.7-.2-1.1s0-.8.2-1.1c.1-.3.3-.5.6-.7.3-.2.6-.2.9-.2Zm0 .5c-.3 0-.6.1-.8.3-.2.2-.3.5-.3.9h2.1c0-.2 0-.4-.1-.6s-.2-.3-.3-.4c-.1 0-.3-.1-.6-.1Zm4.5-.5c.5 0 .8.1 1.1.3.2.2.4.6.4 1.1v2.6h-.6v-2.5c0-.3 0-.6-.2-.7-.1-.2-.4-.2-.7-.2s-.7.1-.9.4c-.2.2-.3.6-.3 1.1v2.1h-.6v-3.9h.5v.6h.1c0-.1.2-.3.3-.3.1 0 .3-.2.4-.2h.5Zm3.9 3.6h.6v.5h-.7c-.2 0-.4 0-.6-.1-.2 0-.3-.2-.4-.4-.1-.2-.2-.4-.2-.7V29h-.6v-.3l.6-.2.2-.9h.4v.9h1.1v.5h-1.1v2.3c0 .2 0 .4.2.6.1.1.3.2.5.2Zm5.8-.7c0 .3 0 .5-.2.6-.1.2-.3.3-.5.4s-.5.1-.8.1h-.7c-.2 0-.4-.1-.5-.2v-.5c.2 0 .4.2.6.2h.7c.3 0 .6 0 .7-.2.2-.1.2-.3.2-.4V31s-.2-.2-.3-.2c-.1 0-.3-.2-.6-.3-.3 0-.5-.2-.7-.3-.2 0-.3-.2-.4-.3 0-.1-.1-.3-.1-.5 0-.3.1-.6.4-.8s.6-.3 1.1-.3h.7c.2 0 .4.1.6.2l-.2.5c-.2 0-.3-.1-.5-.2h-.6c-.3 0-.5 0-.6.1s-.2.2-.2.4 0 .2.1.3c0 0 .2.2.3.2.2 0 .3.2.6.2.2 0 .5.2.6.3.2 0 .3.2.4.4 0 .1.1.3.1.5Zm2.5 1.2c-.4 0-.7 0-.9-.2s-.5-.4-.6-.7c-.2-.3-.2-.7-.2-1.1s0-.9.2-1.2c.2-.3.4-.5.7-.7s.6-.2 1-.2h.6c.2 0 .3 0 .4.1l-.2.5c-.1 0-.3 0-.4-.1s-.3 0-.4 0c-.3 0-.5 0-.7.2-.2.1-.3.3-.4.5 0 .2-.1.5-.1.8s0 .6.1.8.2.4.4.5c.2.1.4.2.6.2h.6c.2 0 .3 0 .5-.2v.5c-.1 0-.3.1-.4.2h-.6Zm2.5-5.7v2.3c0-.1.2-.3.3-.3.1 0 .3-.2.4-.2h.5c.3 0 .6 0 .8.2.2.1.4.3.5.5s.2.5.2.8v2.6h-.6v-2.5c0-.3 0-.6-.2-.7-.1-.2-.4-.2-.7-.2s-.5 0-.7.2c-.2.1-.3.3-.4.5s-.1.5-.1.8v2.1h-.6v-5.6h.6Zm5.4 1.6c.3 0 .6 0 .9.2.2.1.4.4.5.6.1.3.2.6.2.9v.4h-2.7c0 .5.1.8.3 1.1.2.2.5.4.9.4h.7c.2 0 .4-.1.6-.2v.5c-.2 0-.4.2-.6.2h-.7c-.4 0-.7 0-1-.2-.3-.2-.5-.4-.7-.7-.2-.3-.2-.7-.2-1.1s0-.8.2-1.1c.1-.3.3-.5.6-.7s.6-.2.9-.2Zm0 .5c-.3 0-.6.1-.8.3-.2.2-.3.5-.3.9h2.1c0-.2 0-.4-.1-.6s-.2-.3-.3-.4c-.1 0-.3-.1-.6-.1Zm4 3.6c-.5 0-.9-.2-1.2-.5s-.4-.8-.4-1.5.1-1.2.4-1.5c.3-.3.7-.5 1.2-.5h.5c.1 0 .3.1.4.2.1 0 .2.2.3.3v-2.2h.6v5.6h-.5v-.6h-.1c0 .1-.2.2-.3.3-.1 0-.2.2-.4.2h-.6Zm.1-.5c.4 0 .7-.1.9-.4.2-.2.3-.6.3-1.1 0-.6 0-1-.2-1.3-.2-.3-.5-.4-.9-.4s-.6.1-.8.4c-.2.3-.3.7-.3 1.1s0 .9.3 1.1c.2.3.5.4.8.4Zm6.3-3.5v3.9h-.5v-.6h-.1c0 .1-.2.3-.3.3-.1 0-.3.2-.4.2h-.5c-.3 0-.6 0-.8-.2-.2 0-.4-.3-.5-.5-.1-.2-.2-.5-.2-.8v-2.6h.6v2.5c0 .3 0 .6.2.7.1.2.4.2.7.2s.5 0 .7-.2c.2-.1.3-.3.4-.5 0-.2.1-.5.1-.8V28h.6Zm1.8 3.9h-.6v-5.6h.6v5.6Zm2.8-4c.3 0 .6 0 .9.2.2.1.4.4.5.6.1.3.2.6.2.9v.4h-2.7c0 .5.1.8.3 1.1.2.2.5.4.9.4h.7c.2 0 .4-.1.6-.2v.5c-.2 0-.4.2-.6.2h-.7c-.4 0-.7 0-1-.2s-.5-.4-.7-.7c-.2-.3-.2-.7-.2-1.1s0-.8.2-1.1c.1-.3.3-.5.6-.7.3-.2.6-.2.9-.2Zm0 .5c-.3 0-.6.1-.8.3-.2.2-.3.5-.3.9h2.1c0-.2 0-.4-.1-.6s-.2-.3-.3-.4c-.1 0-.3-.1-.6-.1Zm5.1 2.4c0 .3 0 .5-.2.6-.1.2-.3.3-.5.4-.2 0-.5.1-.8.1h-.7c-.2 0-.4-.1-.5-.2v-.5c.2 0 .4.2.6.2h.7c.3 0 .6 0 .7-.2.2-.1.2-.3.2-.4V31s-.2-.2-.3-.2c-.1 0-.3-.2-.6-.3-.2 0-.5-.2-.6-.3-.2 0-.3-.2-.4-.3 0-.1-.1-.3-.1-.5 0-.3.1-.6.4-.8s.6-.3 1.1-.3h.7c.2 0 .4.1.6.2l-.2.5c-.2 0-.3-.1-.5-.2s-.4 0-.6 0c-.3 0-.5 0-.6.1-.1 0-.2.2-.2.4s0 .2.1.3c0 0 .2.2.3.2s.3.2.6.2c.2 0 .5.2.6.3s.3.2.4.4c0 .1.1.3.1.5Zm2.2-.9c0 .4 0 .8-.1 1.2 0 .4-.2.7-.4 1.1-.2.3-.4.7-.6.9h-.6c.2-.3.4-.6.6-1 .2-.3.3-.7.3-1.1 0-.4.1-.7.1-1.1s0-.8-.1-1.1c0-.4-.2-.7-.3-1.1-.2-.3-.3-.7-.6-1h.6c.2.3.4.6.6 1 .2.3.3.7.4 1.1 0 .4.1.8.1 1.2Z"/><path class="st3" d="M412.6 117.6s-24.4 17.7-27.6 20.5c-3.2 2.8-5.7 6.5-5.7 10.4v120.7h33.3V117.6Z"/><path d="M382.5 190.3c-.4 0-.7 0-1 .2-.3.1-.5.3-.7.5-.2.2-.4.5-.5.9s-.2.7-.2 1.1 0 1 .3 1.4c.2.4.4.7.8.9.3.2.8.3 1.3.3h.8c.3 0 .5-.1.8-.2v.7c-.2 0-.5.2-.8.2h-.9c-.7 0-1.2-.1-1.7-.4s-.8-.7-1-1.2c-.2-.5-.3-1.1-.3-1.8s0-1 .2-1.4.3-.8.6-1.1.6-.5 1-.7.8-.2 1.4-.2h1c.3 0 .6.2.8.3l-.3.7c-.2 0-.4-.2-.7-.2-.3 0-.5-.1-.8-.1Zm7.2 3.5c0 .4 0 .8-.2 1.1-.1.3-.3.6-.5.8-.2.2-.4.4-.7.5-.3.1-.6.2-1 .2s-.6 0-.9-.2c-.3-.1-.5-.3-.7-.5s-.4-.5-.5-.8c-.1-.3-.2-.7-.2-1.1s0-1 .3-1.4.4-.7.8-.9.7-.3 1.2-.3.8.1 1.2.3c.3.2.6.5.8.9.2.4.3.8.3 1.4Zm-3.8 0c0 .4 0 .7.2 1s.3.5.5.7c.2.2.5.2.8.2s.6 0 .8-.2c.2-.2.4-.4.5-.7s.2-.6.2-1 0-.7-.2-1-.3-.5-.5-.7-.5-.2-.9-.2c-.5 0-.9.2-1.1.5s-.4.8-.4 1.4Zm7.3-2.5c.6 0 1 .1 1.3.4.3.3.5.7.5 1.4v3.2h-.7v-3.2c0-.4 0-.7-.3-.9-.2-.2-.5-.3-.9-.3s-.9.2-1.2.5c-.2.3-.3.8-.3 1.3v2.6h-.8v-4.9h.6v.7h.2c.1-.2.2-.3.4-.4.2-.1.3-.2.5-.3h.6Zm5.3 5.1c-.4 0-.8 0-1.2-.3s-.6-.5-.8-.8c-.2-.4-.3-.8-.3-1.4s.1-1.1.3-1.5c.2-.4.5-.7.8-.8s.8-.3 1.2-.3h.7c.2 0 .4.1.6.2l-.2.6c-.2 0-.3-.1-.5-.2h-.6c-.3 0-.6 0-.9.2s-.4.4-.5.7c-.1.3-.2.6-.2 1.1s0 .7.2 1c.1.3.3.5.5.6.2.1.5.2.8.2h.7c.2 0 .4-.1.6-.2v.7c-.2 0-.3.1-.6.2s-.4 0-.7 0Zm4.3-5.1c.4 0 .8 0 1.1.3s.5.4.7.8c.2.3.2.7.2 1.2v.5h-3.4c0 .6.2 1 .4 1.3.3.3.7.5 1.2.5h.8c.2 0 .5-.1.8-.3v.7c-.2.1-.5.2-.7.2h-.9c-.5 0-.9 0-1.2-.3-.4-.2-.6-.5-.8-.9-.2-.4-.3-.8-.3-1.4s0-1 .3-1.4c.2-.4.4-.7.8-.9.3-.2.7-.3 1.2-.3Zm0 .6c-.4 0-.7.1-1 .4-.2.3-.4.6-.4 1.1h2.6c0-.3 0-.6-.1-.8 0-.2-.2-.4-.4-.5s-.4-.2-.7-.2Zm5.5-.6h.6v.7h-.7c-.2 0-.4 0-.6.1-.2 0-.3.2-.5.3-.1.1-.2.3-.3.5s-.1.4-.1.7v2.7h-.8v-4.9h.6v.9h.1c.1-.2.2-.4.4-.5.1-.2.3-.3.5-.4.2 0 .4-.1.6-.1Zm3.1 4.5h.7v.6h-.9c-.3 0-.5 0-.7-.1-.2 0-.4-.2-.5-.5s-.2-.5-.2-.9V192h-.7v-.4l.7-.3.3-1.1h.5v1.1h1.4v.6h-1.4v2.9c0 .3 0 .5.2.7s.3.2.6.2Zm-17 16.7h-.8v-3.1h-3.5v3.1h-.8v-6.6h.8v2.8h3.5v-2.8h.8v6.6Zm3.5-5c.6 0 1 .1 1.3.4.3.3.4.7.4 1.3v3.4h-.5v-.7h-.2c-.1.2-.3.3-.4.5-.2.1-.3.2-.5.3s-.4 0-.7 0-.6 0-.8-.2c-.2-.1-.4-.3-.6-.5-.1-.2-.2-.5-.2-.8 0-.5.2-.9.6-1.1.4-.3 1-.4 1.8-.4h.9v-.3c0-.4 0-.7-.3-.9-.2-.2-.4-.3-.8-.3s-.5 0-.7.1c-.2 0-.5.2-.7.3l-.2-.6c.2-.1.5-.2.8-.3.3 0 .6-.1.9-.1Zm1 2.6h-.8c-.6 0-1.1.2-1.3.3-.3.2-.4.4-.4.8s0 .5.3.6c.2.1.4.2.7.2.4 0 .8-.1 1.1-.4.3-.2.4-.6.4-1.1v-.5Zm3 2.4h-.8v-7h.8v7Zm2.3 0h-.8v-7h.8v7Z"/></svg>