<svg id="_圖層_1" xmlns="http://www.w3.org/2000/svg" version="1.1" viewBox="0 0 420 350"><defs><clipPath id="clippath"><path class="st0" d="m66.4 315.6-4.8-87.8c0-2.5 2.3-4.5 5.3-4.5h.5c2.6 0 4.8 1.8 4.9 4l2.6 87.8-8.5.5Z"/></clipPath><clipPath id="clippath-1"><path class="st0" d="M91.7 331.5V265h23.5v-67.1H70.4c-4.3 0-8-3.2-8.5-7.5l-1.2-10c-.8-6.6-.6-13.2.5-19.7l4.2-25.2c2.6-15.4 14.1-27.7 29.2-31.4l274.6-67.2h20v294.8l-297.5-.2Z"/></clipPath><clipPath id="clippath-2"><path class="st0" d="m66.4 315.6-4.8-87.8c0-2.5 2.3-4.5 5.3-4.5h.5c2.6 0 4.8 1.8 4.9 4l2.6 87.8-8.5.5Z"/></clipPath><style>.st0,.st2,.st3{fill:none}.st5{fill:#010101}.st2,.st3{stroke-miterlimit:10}.st6{fill:#f5b9bc}.st10,.st8{isolation:isolate}.st2{stroke-width:1px}.st2,.st3{stroke:#7f8080}.st10,.st15{fill:#fff}.st10{font-family:PingFangTC-Regular-B5pc-H,&apos;PingFang TC&apos;;font-size:4.3px}.st18{fill:#2daa83}.st3{stroke-width:1px}</style></defs><path class="st3" d="M91.7 331.5V265h23.5v-67.1H70.4c-4.3 0-8-3.2-8.5-7.5l-1.2-10c-.8-6.6-.6-13.2.5-19.7l4.2-25.2c2.6-15.4 14.1-27.7 29.2-31.4l274.6-67.2h20v294.8l-297.5-.2Z"/><path class="st6" d="M181.9 244.5h158.8v-12.2h14.8v-70.6h-66.6V142h-33v12.6H155.5v9.1h-26.4v31.1h-16.2v3h-12.1v67.1l51.6 19h29.7l-.2-39.4z"/><path style="fill:#ccc" d="M155.1 331.6v-47.7h27.2l-.2-39.4h118.4v38H336v49.1H155.1z"/><path d="m180.8 69.5-4.4 1.1V70c-.1 0 2.1-6 2.1-6l-3.3.8-.2-.7 4.2-1v.6c.1 0-2.1 6-2.1 6l3.5-.8.2.7Zm.2-7.2.5 2v.7c0-.2.2-.4.3-.5s.3-.3.5-.4.4-.2.6-.2h1c.3 0 .5.2.7.4s.3.5.4.9l.7 3.1-.7.2-.7-3.1c0-.4-.3-.7-.5-.8-.2-.2-.5-.2-.9 0-.4 0-.6.2-.8.4-.2.2-.3.4-.3.7v1l.6 2.5-.7.2-1.6-6.8.7-.2h.2Zm9.9 2.2c0 .4.1.8 0 1.1 0 .3-.1.6-.3.9-.1.3-.3.5-.6.7-.2.2-.5.3-.9.4h-.9c-.3 0-.6-.2-.8-.3-.2-.2-.5-.4-.6-.7-.2-.3-.3-.6-.4-1-.1-.5-.1-1 0-1.4 0-.4.3-.7.6-1s.7-.5 1.1-.6h1.2c.4 0 .7.3 1 .7.3.3.5.7.6 1.3Zm-3.6.9c0 .4.2.7.4 1s.4.4.6.5h.9c.3 0 .6-.2.8-.4.2-.2.3-.5.3-.8v-1c0-.4-.2-.7-.4-1s-.4-.4-.6-.5h-.9c-.5 0-.8.4-1 .8s-.2.9 0 1.4h-.1Zm6.5-4.2h1.4c.4.2.6.6.8 1.2l.7 3.1-.7.2-.7-3.1c0-.4-.3-.7-.5-.8-.2-.2-.5-.2-.9 0-.5 0-.9.4-1 .7s-.1.8 0 1.4l.6 2.5-.7.2-1.1-4.8h.6l.3.5c0-.2.2-.4.3-.5.1-.2.3-.3.5-.4.2 0 .4-.2.6-.2h-.2Zm6.2 5.9h-1.5c-.4-.2-.6-.4-.7-.9 0-.3 0-.6.1-.8.1-.3.4-.5.7-.6-.1 0-.3 0-.4-.2-.1 0-.2-.2-.2-.4v-.5c0-.2.2-.3.4-.5-.3 0-.5-.2-.7-.4s-.4-.5-.4-.8v-.9c0-.3.2-.5.5-.7.2-.2.5-.3.9-.4h.8l1.6-.4v.5c.1 0-.7.3-.7.3.1 0 .2.2.3.4 0 0 .2.3.2.5.1.5 0 .9-.2 1.2s-.7.6-1.2.7h-.4c-.1 0-.2.2-.3.3v.4s0 .2.1.2h.7l.8-.2h1.3c.3.2.5.4.6.9s0 1-.4 1.4-.9.7-1.8.9h-.1Zm-.8-4.4c.3 0 .6-.2.7-.4.1-.2.2-.5 0-.8 0-.4-.2-.6-.5-.7-.2 0-.5-.2-.8 0-.3 0-.6.2-.7.5-.1.2-.2.5 0 .9 0 .3.2.6.4.7.2 0 .5.2.8 0v-.2Zm.7 3.9c.4 0 .7-.2 1-.4.2 0 .4-.3.5-.5 0-.2.1-.4 0-.6 0-.2-.1-.3-.2-.4h-1l-.8.2c-.2 0-.4 0-.5.2s-.2.2-.3.4v.5c0 .3.2.4.5.5h1l-.2.2Zm5.9-4.5v.8c-.1.2-.3.5-.5.6s-.6.3-1 .4h-1.6l-.2-.7h1.7c.4 0 .7-.2.8-.4.2-.2.2-.4.1-.6 0 0 0-.2-.2-.3 0 0-.2-.2-.4-.2h-.8c-.3 0-.6 0-.9-.2-.2 0-.5-.2-.6-.3-.2 0-.3-.3-.3-.6s0-.8.3-1c.3-.3.7-.5 1.2-.6h1.6v.6h-1.5c-.3 0-.6.2-.7.3-.2.2-.2.3-.2.5s.1.3.2.3.3 0 .5.2h.8c.3 0 .6 0 .9.2.2 0 .4.2.6.3.2 0 .3.3.3.6h-.1Zm.6-5.9.5 2v.7c0-.2.1-.4.3-.5.1 0 .3-.3.5-.4.2 0 .4-.2.6-.2h1c.3 0 .5.2.7.4s.3.5.4.9l.7 3.1-.7.2-.7-3.1c0-.4-.3-.7-.5-.8-.2-.2-.5-.2-.9 0-.4 0-.6.2-.8.4s-.3.4-.3.7v1l.6 2.5-.7.2-1.6-6.8.7-.2h.2Zm7 .4h1.4c.4 0 .6.6.7 1.1l.8 3.2h-.5l-.3-.5c0 .2-.2.4-.3.5-.1.2-.3.3-.4.4-.2 0-.4.2-.7.3h-.8c-.2 0-.5-.2-.6-.3-.2-.2-.3-.4-.4-.7-.1-.5 0-.9.3-1.2s.9-.6 1.6-.8l.8-.2v-.3c-.2-.4-.3-.7-.5-.8s-.5 0-.8 0c-.2 0-.5.2-.7.3s-.4.3-.6.4l-.4-.5c.2-.2.4-.3.7-.5.3 0 .5-.3.9-.3h-.2Zm1.5 2.2-.7.2c-.6.2-1 .4-1.2.6-.2.2-.3.5-.2.8 0 .3.2.5.4.5h.7c.4 0 .7-.3 1-.6.2-.3.3-.7.2-1.2v-.4h-.2Zm3.9-3.5h1.4c.4.2.6.6.8 1.2l.7 3.1-.7.2-.7-3.1c0-.4-.3-.7-.5-.8-.2-.2-.5-.2-.9 0-.5 0-.9.4-1 .7s-.1.8 0 1.4l.6 2.5-.7.2-1.1-4.8h.6l.3.5c0-.2.2-.4.3-.5.1-.2.3-.3.5-.4.2 0 .4-.2.6-.2h-.2Zm10 .9v1c-.1.3-.3.6-.6.8s-.7.4-1.1.5h-1.8l-.2-.7h1.9c.3 0 .6-.2.8-.3s.3-.3.4-.5v-.6c0-.2-.1-.4-.3-.5-.1 0-.3-.2-.6-.3-.3 0-.6 0-1-.2h-.8c-.2 0-.4-.2-.6-.3-.2 0-.3-.3-.4-.4l-.3-.6v-.9c.1-.3.3-.5.6-.7s.6-.4 1-.4h1.9v.7H226c-.3 0-.5.2-.7.3s-.3.3-.3.4v.6c0 .2.1.4.3.5.1 0 .3.2.5.3.2 0 .5 0 .9.2.4 0 .8 0 1.1.2.3 0 .5.2.7.4s.3.4.4.8Zm1.3 1v-.5s.2-.2.3-.2h.4s.2.2.3.4v.5s-.2.2-.3.2h-.4c-.1 0-.2-.2-.3-.4Zm5.2-7.5c.5 0 1-.2 1.3 0 .4 0 .7.2.9.4s.4.5.5.9v.9c0 .3-.2.5-.3.7-.2.2-.3.3-.6.5l2.4 2.4-.9.2-2.2-2.3-1.3.3.6 2.7-.7.2-1.5-6.4 1.7-.4h.1Zm.1.7-.9.2.6 2.4 1-.2c.5 0 .9-.3 1.1-.6.2-.3.2-.6.1-1s-.3-.7-.6-.8-.7 0-1.3 0Zm6.8 4.5c-.6 0-1.1 0-1.6-.3s-.8-.9-1-1.7-.2-1.5 0-2 .7-.8 1.3-1h.7c.2 0 .4 0 .6.2.2 0 .3.2.4.3s0-.2-.1-.4c0-.2 0-.3-.1-.4l-.5-1.9.7-.2 1.6 6.8h-.6l-.3-.5c0 .2-.1.3-.2.5-.1 0-.3.3-.4.4-.2 0-.4.2-.6.3h.1Zm0-.6c.5 0 .8-.4 1-.7.1-.3.1-.8 0-1.4-.1-.7-.4-1.2-.6-1.5-.3-.3-.7-.4-1.2-.2-.4 0-.7.4-.9.7-.1.4-.1.9 0 1.5s.4 1 .7 1.3.7.3 1.1.2h-.1ZM45.3 249.6l2-.9v-2.6l-2.2-.7v-.8l6.7 2.2v.7l-6.4 2.9v-.8Zm2.7-1.2 2-.9.3-.1s.2 0 .4-.1c0 0 .2 0 .3-.1h-1l-2.1-.7v2.1-.2Zm2.3 3.2-4.9.3v-.7l4.9-.3v.7Zm1.8-.4v.3l-.4.2c-.2 0-.3 0-.4-.1v-.6s.2-.1.4-.1.3 0 .4.1v.3Zm-8.7 3.7c0-.6 0-1.1.3-1.5.2-.4.5-.6 1-.6s.6 0 .8.3c.2.2.4.4.5.8 0-.1 0-.2.3-.3l.4-.2c.2 0 .3 0 .5.1 0 0 .3.2.4.4 0-.3.3-.5.5-.7s.5-.3.9-.3.7 0 .9.2c.3.1.5.3.6.6s.2.6.2 1v2.5h-.4l-.2-.9s-.2.2-.4.2-.3.1-.5.1c-.5 0-.9-.1-1.2-.4-.3-.3-.5-.8-.5-1.3v-.4c0-.1-.2-.2-.3-.3 0 0-.2-.1-.3 0h-.2v1.6c0 .5 0 .9-.2 1.2s-.5.5-1 .5-1-.2-1.3-.6-.5-1.1-.5-1.9h-.2Zm.6 0c0 .4 0 .7.2 1 0 .3.2.5.4.6s.3.2.6.2.3 0 .4-.2c0 0 .2-.2.2-.4v-1.4c0-.2 0-.4-.2-.6s-.2-.3-.3-.4c0 0-.3-.1-.5-.1-.3 0-.5.1-.6.4s-.2.6-.2 1Zm3.9 0c0 .4 0 .6.3.8s.5.2.8.2.6-.1.8-.3.3-.5.2-.8c0-.3 0-.6-.3-.8s-.5-.3-.8-.2c-.3 0-.6.1-.8.3s-.2.5-.2.8Zm3 7.3-4.9.3v-.6h.7c-.2-.2-.3-.4-.4-.5 0-.2-.2-.3-.3-.5s0-.4 0-.6v-1c0-.3.3-.5.6-.6s.6-.2 1-.2l3.2-.2v.8l-3.1.2c-.4 0-.7.1-.9.3-.2.2-.3.5-.3.9s0 .6.2.9c0 .2.4.4.6.4.3 0 .6.1 1 0h2.6v.6-.2Zm-2.2 5.9c-.4 0-.8 0-1.1-.1-.3 0-.6-.2-.8-.4s-.4-.4-.5-.7c0-.3-.2-.6-.2-.9v-.9c0-.3.3-.5.5-.7s.5-.4.8-.5.7-.2 1.1-.2 1 0 1.4.2.7.4.9.7.3.7.4 1.2c0 .4 0 .8-.2 1.2-.2.3-.5.6-.8.8-.4.2-.8.3-1.4.3h-.2Zm-.2-3.7c-.4 0-.7 0-1 .2-.3.1-.5.3-.6.5s-.2.5-.2.9 0 .6.3.8c.2.2.4.4.7.5.3 0 .6.1 1 .1s.7 0 1-.2c.3-.1.5-.3.6-.5s.2-.5.2-.9-.2-.9-.6-1.1c-.3-.2-.8-.3-1.4-.3Zm-1.8 11.3-.2-3.6 6.5-.3.2 3.6h-.7v-2.8h-2.2v2.8h-.7v-2.7h-2.5v3h-.7.1Zm.5 1.2c.2 0 .4 0 .5.1 0 0 0 .2.2.4v.4c0 .1-.2.2-.4.2s-.4 0-.5-.1c0 0-.2-.2-.2-.4v-.4c0-.1.2-.2.4-.2Zm6.4 6.4v1.3c0 .4-.3.6-.6.8s-.6.3-1 .3-.6 0-.9-.1c-.2-.1-.4-.3-.6-.5s-.3-.4-.4-.6l-2.8 1.9v-.9l2.6-1.7v-1.4h-2.8v-.7l6.5-.3v1.8Zm-.7 0v-1h-2.6v1.1c0 .5.2.9.4 1.2.2.2.6.3 1 .3s.8-.2.9-.4c.2-.3.2-.7.2-1.2Zm-5.6 5.9c0-.6.2-1.1.6-1.5.4-.4 1-.6 1.9-.6s1.5.1 1.9.5c.4.3.7.8.7 1.4v.7c0 .2 0 .4-.2.5 0 .1-.2.3-.4.4h2.8v.6l-7 .4v-.6h.7c-.2-.2-.3-.3-.4-.5 0-.1-.2-.3-.3-.5v-.7h-.2Zm.6.1c0 .5.2.9.5 1.1s.8.3 1.3.3c.6 0 1.1-.2 1.4-.4.3-.2.5-.6.4-1.2 0-.5-.2-.8-.6-1-.4-.2-.8-.3-1.5-.3s-1.1.2-1.4.4c-.3.2-.5.6-.4 1.1h.2ZM212 310.5h-1.1l-4.5-6.9v6.9h-.9v-8.3h1.1l4.5 6.9v-7h.9v8.3Zm4.4-6.3c.7 0 1.3.2 1.6.5.4.3.5.9.5 1.6v4.2h-.7l-.2-.9c-.2.2-.4.4-.5.6s-.4.3-.7.3-.5.1-.9.1-.7 0-1-.2-.5-.3-.7-.6c-.2-.3-.3-.6-.3-1 0-.6.2-1.1.7-1.4s1.2-.5 2.2-.5h1.1v-.4c0-.5-.1-.9-.3-1.1s-.6-.3-1-.3-.6 0-.9.1c-.3 0-.6.2-.8.3l-.3-.7c.3-.1.6-.3 1-.4s.7-.2 1.1-.2Zm1.3 3.2h-.9c-.8 0-1.3.2-1.6.4-.3.2-.5.5-.5.9s.1.6.3.8c.2.2.5.3.9.3s1-.2 1.4-.5c.3-.3.5-.8.5-1.4v-.6Zm4.8 2.4h.9v.7c-.1 0-.3 0-.5.1h-.6c-.3 0-.6 0-.9-.2-.3-.1-.5-.3-.6-.6-.2-.3-.2-.7-.2-1.1V305h-.9v-.5l.9-.4.4-1.3h.6v1.4h1.8v.7h-1.8v3.6c0 .4 0 .7.3.9.2.2.4.3.7.3Zm2.6-7.8c.2 0 .3 0 .4.2.1 0 .2.3.2.5s0 .4-.2.5-.2.2-.4.2-.3 0-.4-.2c-.1-.1-.2-.3-.2-.5s0-.4.2-.5c.1-.1.2-.2.4-.2Zm.5 2.3v6.2h-.9v-6.2h.9Zm7.3 3.1c0 .5 0 1-.2 1.4-.1.4-.3.7-.6 1-.2.3-.5.5-.9.6s-.8.2-1.2.2-.8 0-1.1-.2l-.9-.6c-.3-.3-.4-.6-.6-1-.1-.4-.2-.9-.2-1.4s.1-1.3.3-1.7c.2-.5.6-.8 1-1.1.4-.2.9-.4 1.5-.4s1.1.1 1.5.4.8.6 1 1.1.4 1.1.4 1.7Zm-4.7 0c0 .5 0 .9.2 1.3s.3.6.6.8c.3.2.6.3 1.1.3s.8 0 1.1-.3c.3-.2.5-.5.6-.8s.2-.8.2-1.3 0-.9-.2-1.3c-.1-.4-.3-.6-.6-.8-.3-.2-.6-.3-1.1-.3s-1.1.2-1.4.6c-.3.4-.4 1-.4 1.8h-.1Zm9.3-3.2c.7 0 1.3.2 1.7.5.4.4.6.9.6 1.7v4h-.9v-4c0-.5-.1-.9-.4-1.2s-.6-.4-1.1-.4-1.2.2-1.4.6c-.3.4-.4 1-.4 1.7v3.2h-.9v-6.2h.8v.9h.2c.1-.2.3-.4.5-.6.2-.1.4-.3.7-.3s.5-.1.8-.1l-.2.2Zm6.4 0c.7 0 1.3.2 1.6.5.4.3.5.9.5 1.6v4.2h-.7l-.2-.9c-.2.2-.4.4-.5.6s-.4.3-.7.3-.5.1-.9.1-.7 0-1-.2-.5-.3-.7-.6c-.2-.3-.3-.6-.3-1 0-.6.2-1.1.7-1.4s1.2-.5 2.2-.5h1.1v-.4c0-.5-.1-.9-.3-1.1s-.6-.3-1-.3-.6 0-.9.1c-.3 0-.6.2-.8.3l-.3-.7c.3-.1.6-.3 1-.4s.7-.2 1.1-.2Zm1.3 3.2h-.9c-.8 0-1.3.2-1.6.4-.3.2-.5.5-.5.9s.1.6.3.8c.2.2.5.3.9.3s1-.2 1.4-.5c.3-.3.5-.8.5-1.4v-.6Zm3.8 3.1h-.9v-8.8h.9v8.8Zm7.6 0h-1v-7.4H253v-.8h6.2v.8h-2.6v7.4Zm4.7-8.8v3.5c.1-.2.3-.4.5-.6.2-.1.4-.3.7-.3s.5-.1.8-.1c.5 0 .9 0 1.2.2.3.2.6.4.8.7.2.3.3.8.3 1.3v4h-.9v-4c0-.5-.1-.9-.4-1.2s-.6-.4-1.1-.4-.8 0-1.1.3c-.3.2-.5.4-.6.8-.1.3-.2.8-.2 1.2v3.2h-.9v-8.8h.9v.2Zm8.5 2.5c.5 0 1 .1 1.4.3.4.2.7.6.9 1 .2.4.3.9.3 1.5v.6h-4.3c0 .7.2 1.3.5 1.7.4.4.8.6 1.5.6s.7 0 1-.1c.3 0 .6-.2.9-.3v.8l-.9.3H270c-.6 0-1.1-.1-1.6-.4-.4-.2-.8-.6-1-1.1s-.4-1-.4-1.7.1-1.2.3-1.7c.2-.5.5-.9.9-1.1.4-.3.9-.4 1.4-.4h.2Zm0 .8c-.5 0-.9.2-1.2.5-.3.3-.5.8-.5 1.4h3.3c0-.4 0-.7-.2-1-.1-.3-.3-.5-.5-.7s-.5-.2-.9-.2Zm6.5-.8c.7 0 1.3.2 1.6.5.4.3.5.9.5 1.6v4.2h-.7l-.2-.9c-.2.2-.4.4-.5.6s-.4.3-.7.3-.5.1-.9.1-.7 0-1-.2-.5-.3-.7-.6c-.2-.3-.3-.6-.3-1 0-.6.2-1.1.7-1.4s1.2-.5 2.2-.5h1.1v-.4c0-.5-.1-.9-.3-1.1-.2-.2-.6-.3-1-.3s-.6 0-.9.1c-.3 0-.6.2-.8.3l-.3-.7c.3-.1.6-.3 1-.4s.7-.2 1.1-.2Zm1.2 3.2h-.9c-.8 0-1.3.2-1.6.4-.3.2-.5.5-.5.9s.1.6.3.8.5.3.9.3 1-.2 1.4-.5c.3-.3.5-.8.5-1.4v-.6Zm4.9 2.4h.9v.7c-.1 0-.3 0-.5.1h-.6c-.3 0-.6 0-.9-.2-.3-.1-.5-.3-.6-.6-.2-.3-.2-.7-.2-1.1V305h-.9v-.5l.9-.4.4-1.3h.6v1.4h1.8v.7h-1.8v3.6c0 .4 0 .7.3.9.2.2.4.3.7.3Zm4.5-5.6c.5 0 1 .1 1.4.3.4.2.7.6.9 1 .2.4.3.9.3 1.5v.6h-4.3c0 .7.2 1.3.5 1.7.4.4.8.6 1.5.6s.7 0 1-.1c.3 0 .6-.2.9-.3v.8l-.9.3h-1.1c-.6 0-1.1-.1-1.6-.4-.4-.2-.8-.6-1-1.1s-.4-1-.4-1.7.1-1.2.3-1.7c.2-.5.5-.9.9-1.1.4-.3.9-.4 1.4-.4h.2Zm0 .8c-.5 0-.9.2-1.2.5-.3.3-.5.8-.5 1.4h3.3c0-.4 0-.7-.2-1-.1-.3-.3-.5-.5-.7s-.5-.2-.9-.2Zm6.9-.8h.8v.9h-.8c-.2 0-.5 0-.7.1s-.4.2-.6.4c-.2.2-.3.4-.4.7 0 .3-.1.6-.1.9v3.3h-.9v-6.2h.8v1.1h.1c.1-.2.3-.4.5-.6s.4-.3.6-.5.5-.2.8-.2Zm35.2-38.3-2.8-7.3v7.3h-.9v-8.3h1.4l2.6 6.9 2.7-6.9h1.4v8.3h-.9v-7.3l-2.8 7.3h-.8Zm8.9-6.3c.7 0 1.3.2 1.6.5.4.3.5.9.5 1.6v4.2h-.7l-.2-.9c-.2.2-.4.4-.5.6-.2.2-.4.3-.7.3s-.5.1-.9.1-.7 0-1-.2-.5-.3-.7-.6-.3-.6-.3-1c0-.6.2-1.1.7-1.4s1.2-.5 2.2-.5h1.1v-.4c0-.5-.1-.9-.3-1.1s-.6-.3-1-.3-.6 0-.9.1-.6.2-.8.3l-.3-.7c.3-.1.6-.3 1-.4s.7-.2 1.1-.2Zm1.3 3.3h-.9c-.8 0-1.3.2-1.6.4-.3.2-.5.5-.5.9s.1.6.3.8.5.3.9.3 1-.2 1.3-.5c.4-.3.5-.8.5-1.4v-.6Zm3.3-5.5c.2 0 .3 0 .4.2.1 0 .2.3.2.5s0 .4-.2.5-.2.2-.4.2-.3 0-.4-.2-.2-.3-.2-.5 0-.4.2-.5c.1-.1.2-.2.4-.2Zm.5 2.3v6.2h-.9v-6.2h.9Zm4.9-.1c.7 0 1.3.2 1.7.5s.6.9.6 1.7v4h-.9v-4c0-.5-.1-.9-.4-1.2s-.6-.4-1.1-.4-1.2.2-1.4.6c-.3.4-.4 1-.4 1.7v3.2h-.9v-6.2h.8v.9h.2c.1-.2.3-.4.5-.6.2-.1.4-.3.7-.3s.5-.1.8-.1l-.2.2Zm10.3-1.9c1.1 0 1.8.2 2.3.6s.7 1 .7 1.8 0 .7-.2 1c-.1.3-.3.6-.6.8s-.6.4-1 .6c-.4.1-.9.2-1.5.2h-1v3.2h-1v-8.3h2.3Zm-.1.8H357v3.4h.9c.5 0 1 0 1.3-.2.4-.1.6-.3.8-.6.2-.3.3-.6.3-1s-.2-1-.5-1.2c-.4-.3-.9-.4-1.6-.4Zm5.7 7.4h-.9v-8.8h.9v8.8Zm4.3-6.3c.7 0 1.3.2 1.6.5.4.3.5.9.5 1.6v4.2h-.7l-.2-.9c-.2.2-.4.4-.5.6s-.4.3-.7.3-.5.1-.9.1-.7 0-1-.2-.5-.3-.7-.6c-.2-.3-.3-.6-.3-1 0-.6.2-1.1.7-1.4s1.2-.5 2.2-.5h1.1v-.4c0-.5-.1-.9-.3-1.1-.2-.2-.6-.3-1-.3s-.6 0-.9.1c-.3 0-.6.2-.8.3l-.3-.7c.3-.1.6-.3 1-.4s.7-.2 1.1-.2Zm1.2 3.3h-.9c-.8 0-1.3.2-1.6.4-.3.2-.5.5-.5.9s.1.6.3.8.5.3.9.3 1-.2 1.4-.5c.3-.3.5-.8.5-1.4v-.6Zm6.9 3h-4.5v-.6l3.4-4.8h-3.2v-.7h4.2v.7l-3.4 4.8h3.4v.7h.1Zm3.7-6.3c.7 0 1.3.2 1.6.5.4.3.5.9.5 1.6v4.2h-.7l-.2-.9c-.2.2-.4.4-.5.6s-.4.3-.7.3-.5.1-.9.1-.7 0-1-.2-.5-.3-.7-.6c-.2-.3-.3-.6-.3-1 0-.6.2-1.1.7-1.4s1.2-.5 2.2-.5h1.1v-.4c0-.5-.1-.9-.3-1.1-.2-.2-.6-.3-1-.3s-.6 0-.9.1c-.3 0-.6.2-.8.3l-.3-.7c.3-.1.6-.3 1-.4s.7-.2 1.1-.2Zm1.3 3.3h-.9c-.8 0-1.3.2-1.6.4-.3.2-.5.5-.5.9s.1.6.3.8.5.3.9.3 1-.2 1.4-.5c.3-.3.5-.8.5-1.4v-.6Z"/><path class="st18" d="m362.4 249.2 6.9-11.9h-13.7l6.8 11.9zm-259.8 66 6.9-11.9H95.7l6.9 11.9z"/><path d="M88.3 211.7 75 200v23.5l13.3-11.8zM26 204.6h48.9v14.3H26z" style="fill:#d03536"/><g class="st8"><text class="st10" transform="translate(38.8 210.6)"><tspan x="0" y="0">Construction </tspan></text><text class="st10" transform="translate(43.4 215.7)"><tspan x="0" y="0">Entrance</tspan></text></g><path class="st3" d="m30.8 240 3.8 74.6"/><path class="st0" d="m-85.9 250.3 348.6-331M-84.2 251.6l348.6-331M-82.5 252.8l348.6-331M-80.8 254.1l348.6-331M-79 255.3l348.5-331M-77.3 256.6l348.5-331M-75.6 257.8l348.5-331M-73.9 259.1l348.5-331M-72.2 260.3l348.5-331M-70.5 261.6 278-69.4M-68.8 262.8l348.5-331M-67.1 264.1l348.5-331M-65.4 265.3l348.5-331M-63.7 266.6l348.5-331M-62 267.8l348.6-331M-60.3 269.1l348.6-331M-58.6 270.3 290-60.7M-56.9 271.6l348.6-331M-55.2 272.8l348.6-331M-53.5 274.1l348.6-331M-51.8 275.3l348.6-331M-50.1 276.6l348.6-331M-48.4 277.8l348.6-331M-46.7 279.1l348.6-331M-45 280.3l348.6-331M-43.3 281.6l348.6-331M-41.6 282.8 307-48.2M-39.9 284.1l348.6-331M-38.1 285.3l348.5-331M-36.4 286.6l348.5-331M-34.7 287.8l348.5-331M-33 289.1l348.5-331M-31.3 290.3l348.5-331M-29.6 291.6l348.5-331M-27.9 292.8l348.5-331M-26.2 294.1l348.5-331M-24.5 295.4 324-35.6M-22.8 296.6l348.5-331M-21.1 297.9l348.6-331M-19.4 299.1l348.6-331M-17.7 300.4l348.6-331M-16 301.6l348.6-331M-14.3 302.9l348.6-331M-12.6 304.1 336-26.9M-10.9 305.4l348.6-331M-9.2 306.6l348.6-331M-7.5 307.9l348.6-331M-5.8 309.1l348.6-331M-4.1 310.4l348.6-331M-2.4 311.6l348.6-331M-.7 312.9l348.6-331M1 314.1l348.6-331M2.8 315.4l348.5-331M4.5 316.6 353-14.4M6.2 317.9l348.5-331M7.9 319.1l348.5-331M9.6 320.4l348.5-331M11.3 321.6l348.5-331M13 322.9l348.5-331M14.7 324.1l348.5-331M16.4 325.4l348.5-331M18.1 326.6l348.5-331M19.8 327.9l348.6-331M21.5 329.1l348.6-331M23.2 330.4 371.8-.6M24.9 331.6 373.5.6M26.6 332.9l348.6-331M28.3 334.1l348.6-331M30 335.4l348.6-331M31.7 336.7l348.6-331M33.4 337.9 382 6.9M35.1 339.2l348.6-331M36.8 340.4l348.6-331M38.5 341.7l348.6-331M40.2 342.9l348.6-331M41.9 344.2l348.6-331M43.7 345.4l348.5-331M45.4 346.7l348.5-331M47.1 347.9l348.5-331M48.8 349.2l348.5-331M50.5 350.4 399 19.4M52.2 351.7l348.5-331M53.9 352.9l348.5-331M55.6 354.2l348.5-331M57.3 355.4l348.5-331M59 356.7l348.5-331M60.7 357.9l348.6-331M62.4 359.2 411 28.2M64.1 360.4l348.6-331M65.8 361.7l348.6-331M67.5 362.9l348.6-331M69.2 364.2l348.6-331M70.9 365.4l348.6-331M72.6 366.7l348.6-331M74.3 367.9l348.6-331M76 369.2l348.6-331M77.7 370.4l348.6-331M79.4 371.7 428 40.7M81.1 372.9l348.6-331M82.8 374.2l348.6-331M84.6 375.4l348.5-331M86.3 376.7l348.5-331M88 378 436.5 47M89.7 379.2l348.5-331M91.4 380.5l348.5-331M93.1 381.7l348.5-331M94.8 383 443.3 52M96.5 384.2 445 53.2M98.2 385.5l348.5-331M99.9 386.7l348.6-331M101.6 388 450.2 57M103.3 389.2l348.6-331M105 390.5l348.6-331M106.7 391.7l348.6-331M108.4 393 457 62M110.1 394.2l348.6-331M111.8 395.5l348.6-331M113.5 396.7l348.6-331M115.2 398 463.8 67M116.9 399.2l348.6-331M118.6 400.5l348.6-331M120.3 401.7l348.6-331M122 403 470.6 72M123.8 404.2l348.5-331M125.5 405.5 474 74.5M127.2 406.7l348.5-331M128.9 408 477.4 77M130.6 409.2l348.5-331M132.3 410.5l348.5-331M134 411.7l348.5-331M135.7 413 484.2 82M137.4 414.2l348.5-331M139.1 415.5l348.5-331M140.8 416.7l348.6-331M142.5 418 491.1 87M144.2 419.2l348.6-331M145.9 420.5l348.6-331M147.6 421.8l348.6-331M149.3 423 497.9 92M151 424.3l348.6-331M152.7 425.5l348.6-331M154.4 426.8 503 95.8M156.1 428 504.7 97M157.8 429.3l348.6-331M159.5 430.5l348.6-331M161.2 431.8l348.6-331M162.9 433l348.6-331M164.7 434.3l348.5-331M166.4 435.5l348.5-331M168.1 436.8l348.5-331M169.8 438l348.5-331M171.5 439.3l348.5-331M173.2 440.5l348.5-331M174.9 441.8l348.5-331M176.6 443l348.5-331M178.3 444.3l348.5-331M180 445.5l348.5-331M181.7 446.8l348.6-331M183.4 448 532 117M185.1 449.3l348.6-331M186.8 450.5l348.6-331M188.5 451.8l348.6-331M190.2 453l348.6-331M191.9 454.3l348.6-331M193.6 455.5l348.6-331M195.3 456.8l348.6-331M197 458l348.6-331M198.7 459.3l348.6-331M200.4 460.5l348.6-331M202.1 461.8l348.6-331M203.8 463.1l348.6-331M205.6 464.3l348.5-331M207.3 465.6l348.5-331M209 466.8l348.5-331M210.7 468.1l348.5-331M212.4 469.3l348.5-331M214.1 470.6l348.5-331M215.8 471.8l348.5-331M217.5 473.1l348.5-331M219.2 474.3l348.5-331M220.9 475.6l348.5-331M222.6 476.8l348.6-331M224.3 478.1l348.6-331M226 479.3l348.6-331M227.7 480.6l348.6-331M229.4 481.8l348.6-331M231.1 483.1l348.6-331M232.8 484.3l348.6-331M234.5 485.6l348.6-331M236.2 486.8l348.6-331M237.9 488.1l348.6-331M239.6 489.3l348.6-331M241.3 490.6l348.6-331M243 491.8l348.6-331M244.7 493.1l348.6-331M246.5 494.3l348.5-331M248.2 495.6l348.5-331M249.9 496.8l348.5-331M251.6 498.1l348.5-331M253.3 499.3l348.5-331M255 500.6l348.5-331M256.7 501.8l348.5-331" style="clip-path:url(#clippath)"/><path class="st2" d="m66.4 315.6-4.8-87.8c0-2.5 2.3-4.5 5.3-4.5h.5c2.6 0 4.8 1.8 4.9 4l2.6 87.8"/><path d="m217.4 125-3.5 4.2h7l-3.5-4.2z"/><path d="m217.4 128.5-4.2 5h8.4l-4.2-5z"/><path d="m217.3 131.9-5 6h10.1l-5.1-6zm-.9 6h1.8v3.9h-1.8z"/><text transform="translate(74 24.8)" style="font-family:PingFangTC-Regular-B5pc-H,'PingFang TC';font-size:7.7px;isolation:isolate" class="st8"><tspan x="0" y="0">Pedestrian Route</tspan></text><path style="stroke-miterlimit:10;stroke:#2daa83;stroke-width:2.9px;fill:none" d="M68.7 21.6H30.8"/><g style="clip-path:url(#clippath-1)"><path d="m-85.9 250.3 348.6-331M-82.5 252.8l348.6-331M-79.1 255.3l348.6-331M-75.7 257.8l348.6-331M-72.3 260.3l348.6-331M-68.9 262.8l348.6-331M-65.5 265.2 283-65.8M-62.1 267.7l348.5-331M-58.7 270.2l348.5-331M-55.3 272.7l348.5-331M-52 275.2l348.6-331M-48.6 277.7 300-53.3M-45.2 280.2l348.6-331M-41.8 282.7l348.6-331M-38.4 285.2l348.6-331M-35 287.7l348.6-331M-31.6 290.1 317-40.9M-28.2 292.6l348.5-331M-24.8 295.1l348.5-331M-21.4 297.6l348.5-331M-18 300.1l348.5-331M-14.6 302.6l348.5-331M-11.3 305.1l348.6-331M-7.9 307.6l348.6-331M-4.5 310.1l348.6-331M-1.1 312.6l348.6-331M2.3 315.1l348.6-331M5.7 317.5l348.6-331M9.1 320 357.7-11M12.5 322.5 361-8.5M15.9 325 364.4-6M19.3 327.5l348.5-331M22.7 330 371.2-1M26.1 332.5l348.5-331M29.4 335 378 4M32.8 337.5l348.6-331M36.2 340 384.8 9M39.6 342.5l348.6-331M43 344.9l348.6-331M46.4 347.4 395 16.4M49.8 349.9l348.6-331M53.2 352.4l348.5-331M56.6 354.9l348.5-331M60 357.4l348.5-331M63.4 359.9l348.5-331M66.8 362.4l348.5-331M70.1 364.9l348.6-331M73.5 367.4l348.6-331M76.9 369.8l348.6-331M80.3 372.3l348.6-331M83.7 374.8l348.6-331M87.1 377.3l348.6-331M90.5 379.8l348.6-331M93.9 382.3l348.5-331M97.3 384.8l348.5-331M100.7 387.3l348.5-331M104.1 389.8l348.5-331M107.5 392.3 456 61.3M110.8 394.8l348.6-331M114.2 397.2l348.6-331M117.6 399.7l348.6-331M121 402.2l348.6-331M124.4 404.7 473 73.7M127.8 407.2l348.6-331M131.2 409.7l348.6-331M134.6 412.2l348.5-331M138 414.7l348.5-331M141.4 417.2l348.5-331M144.8 419.7l348.5-331M148.1 422.1l348.6-331M151.5 424.6l348.6-331M154.9 427.1l348.6-331M158.3 429.6l348.6-331M161.7 432.1l348.6-331M165.1 434.6l348.6-331M168.5 437.1l348.6-331M171.9 439.6l348.5-331M175.3 442.1l348.5-331M178.7 444.6l348.5-331M182.1 447.1l348.5-331M185.5 449.5l348.5-331M188.8 452l348.6-331M192.2 454.5l348.6-331M195.6 457l348.6-331M199 459.5l348.6-331M202.4 462 551 131M205.8 464.5l348.6-331M209.2 467l348.6-331M212.6 469.5l348.5-331M216 472l348.5-331M219.4 474.5l348.5-331M222.8 476.9l348.5-331M226.2 479.4l348.5-331M229.5 481.9l348.6-331M232.9 484.4l348.6-331M236.3 486.9l348.6-331M239.7 489.4l348.6-331M243.1 491.9l348.6-331M246.5 494.4l348.6-331M249.9 496.9l348.6-331M253.3 499.4l348.5-331M256.7 501.8l348.5-331" style="fill:#c3c4c4"/></g><path class="st3" d="M91.7 331.5V265h23.5v-67.1H70.4c-4.3 0-8-3.2-8.5-7.5l-1.2-10c-.8-6.6-.6-13.2.5-19.7l4.2-25.2c2.6-15.4 14.1-27.7 29.2-31.4l274.6-67.2h20v294.8l-297.5-.2Z"/><path class="st0" d="m-85.9 250.3 348.6-331M-84.2 251.6l348.6-331M-82.5 252.8l348.6-331M-80.8 254.1l348.6-331M-79 255.3l348.5-331M-77.3 256.6l348.5-331M-75.6 257.8l348.5-331M-73.9 259.1l348.5-331M-72.2 260.3l348.5-331M-70.5 261.6 278-69.4M-68.8 262.8l348.5-331M-67.1 264.1l348.5-331M-65.4 265.3l348.5-331M-63.7 266.6l348.5-331M-62 267.8l348.6-331M-60.3 269.1l348.6-331M-58.6 270.3 290-60.7M-56.9 271.6l348.6-331M-55.2 272.8l348.6-331M-53.5 274.1l348.6-331M-51.8 275.3l348.6-331M-50.1 276.6l348.6-331M-48.4 277.8l348.6-331M-46.7 279.1l348.6-331M-45 280.3l348.6-331M-43.3 281.6l348.6-331M-41.6 282.8 307-48.2M-39.9 284.1l348.6-331M-38.1 285.3l348.5-331M-36.4 286.6l348.5-331M-34.7 287.8l348.5-331M-33 289.1l348.5-331M-31.3 290.3l348.5-331M-29.6 291.6l348.5-331M-27.9 292.8l348.5-331M-26.2 294.1l348.5-331M-24.5 295.4 324-35.6M-22.8 296.6l348.5-331M-21.1 297.9l348.6-331M-19.4 299.1l348.6-331M-17.7 300.4l348.6-331M-16 301.6l348.6-331M-14.3 302.9l348.6-331M-12.6 304.1 336-26.9M-10.9 305.4l348.6-331M-9.2 306.6l348.6-331M-7.5 307.9l348.6-331M-5.8 309.1l348.6-331M-4.1 310.4l348.6-331M-2.4 311.6l348.6-331M-.7 312.9l348.6-331M1 314.1l348.6-331M2.8 315.4l348.5-331M4.5 316.6 353-14.4M6.2 317.9l348.5-331M7.9 319.1l348.5-331M9.6 320.4l348.5-331M11.3 321.6l348.5-331M13 322.9l348.5-331M14.7 324.1l348.5-331M16.4 325.4l348.5-331M18.1 326.6l348.5-331M19.8 327.9l348.6-331M21.5 329.1l348.6-331M23.2 330.4 371.8-.6M24.9 331.6 373.5.6M26.6 332.9l348.6-331M28.3 334.1l348.6-331M30 335.4l348.6-331M31.7 336.7l348.6-331M33.4 337.9 382 6.9M35.1 339.2l348.6-331M36.8 340.4l348.6-331M38.5 341.7l348.6-331M40.2 342.9l348.6-331M41.9 344.2l348.6-331M43.7 345.4l348.5-331M45.4 346.7l348.5-331M47.1 347.9l348.5-331M48.8 349.2l348.5-331M50.5 350.4 399 19.4M52.2 351.7l348.5-331M53.9 352.9l348.5-331M55.6 354.2l348.5-331M57.3 355.4l348.5-331M59 356.7l348.5-331M60.7 357.9l348.6-331M62.4 359.2 411 28.2M64.1 360.4l348.6-331M65.8 361.7l348.6-331M67.5 362.9l348.6-331M69.2 364.2l348.6-331M70.9 365.4l348.6-331M72.6 366.7l348.6-331M74.3 367.9l348.6-331M76 369.2l348.6-331M77.7 370.4l348.6-331M79.4 371.7 428 40.7M81.1 372.9l348.6-331M82.8 374.2l348.6-331M84.6 375.4l348.5-331M86.3 376.7l348.5-331M88 378 436.5 47M89.7 379.2l348.5-331M91.4 380.5l348.5-331M93.1 381.7l348.5-331M94.8 383 443.3 52M96.5 384.2 445 53.2M98.2 385.5l348.5-331M99.9 386.7l348.6-331M101.6 388 450.2 57M103.3 389.2l348.6-331M105 390.5l348.6-331M106.7 391.7l348.6-331M108.4 393 457 62M110.1 394.2l348.6-331M111.8 395.5l348.6-331M113.5 396.7l348.6-331M115.2 398 463.8 67M116.9 399.2l348.6-331M118.6 400.5l348.6-331M120.3 401.7l348.6-331M122 403 470.6 72M123.8 404.2l348.5-331M125.5 405.5 474 74.5M127.2 406.7l348.5-331M128.9 408 477.4 77M130.6 409.2l348.5-331M132.3 410.5l348.5-331M134 411.7l348.5-331M135.7 413 484.2 82M137.4 414.2l348.5-331M139.1 415.5l348.5-331M140.8 416.7l348.6-331M142.5 418 491.1 87M144.2 419.2l348.6-331M145.9 420.5l348.6-331M147.6 421.8l348.6-331M149.3 423 497.9 92M151 424.3l348.6-331M152.7 425.5l348.6-331M154.4 426.8 503 95.8M156.1 428 504.7 97M157.8 429.3l348.6-331M159.5 430.5l348.6-331M161.2 431.8l348.6-331M162.9 433l348.6-331M164.7 434.3l348.5-331M166.4 435.5l348.5-331M168.1 436.8l348.5-331M169.8 438l348.5-331M171.5 439.3l348.5-331M173.2 440.5l348.5-331M174.9 441.8l348.5-331M176.6 443l348.5-331M178.3 444.3l348.5-331M180 445.5l348.5-331M181.7 446.8l348.6-331M183.4 448 532 117M185.1 449.3l348.6-331M186.8 450.5l348.6-331M188.5 451.8l348.6-331M190.2 453l348.6-331M191.9 454.3l348.6-331M193.6 455.5l348.6-331M195.3 456.8l348.6-331M197 458l348.6-331M198.7 459.3l348.6-331M200.4 460.5l348.6-331M202.1 461.8l348.6-331M203.8 463.1l348.6-331M205.6 464.3l348.5-331M207.3 465.6l348.5-331M209 466.8l348.5-331M210.7 468.1l348.5-331M212.4 469.3l348.5-331M214.1 470.6l348.5-331M215.8 471.8l348.5-331M217.5 473.1l348.5-331M219.2 474.3l348.5-331M220.9 475.6l348.5-331M222.6 476.8l348.6-331M224.3 478.1l348.6-331M226 479.3l348.6-331M227.7 480.6l348.6-331M229.4 481.8l348.6-331M231.1 483.1l348.6-331M232.8 484.3l348.6-331M234.5 485.6l348.6-331M236.2 486.8l348.6-331M237.9 488.1l348.6-331M239.6 489.3l348.6-331M241.3 490.6l348.6-331M243 491.8l348.6-331M244.7 493.1l348.6-331M246.5 494.3l348.5-331M248.2 495.6l348.5-331M249.9 496.8l348.5-331M251.6 498.1l348.5-331M253.3 499.3l348.5-331M255 500.6l348.5-331M256.7 501.8l348.5-331" style="clip-path:url(#clippath-2)"/><path class="st2" d="m66.4 315.6-4.8-87.8c0-2.5 2.3-4.5 5.3-4.5h.5c2.6 0 4.8 1.8 4.9 4l2.6 87.8"/><path class="st6" d="M129.1 122.8 333.5 72c6.9-1.7 14.4.6 18.8 6.2 1.9 2.5 3.2 5.3 3.2 8.2v78H129.2v-41.5Z"/><path d="M232.2 137.9v-8.3h1v7.4h3.7v.9h-4.7Zm6.4-8.5c.2 0 .3 0 .4.1.1.1.2.3.2.5s0 .4-.2.5c-.1.1-.2.2-.4.2s-.3 0-.4-.2c-.1-.1-.2-.3-.2-.5s0-.4.2-.5c.1 0 .2-.1.4-.1Zm.5 2.3v6.2h-.9v-6.2h.9Zm4 5.6h.9v.7c-.1 0-.3 0-.5.1h-.6c-.3 0-.6 0-.9-.2-.3-.1-.5-.3-.6-.6-.2-.3-.2-.7-.2-1.1v-3.7h-.9v-.5l.9-.4.4-1.3h.6v1.4h1.8v.7h-1.8v3.6c0 .4 0 .7.3.9.2.2.4.3.7.3Zm4.1 0h.9v.7c-.1 0-.3 0-.5.1h-.6c-.3 0-.6 0-.9-.2-.3-.1-.5-.3-.6-.6-.2-.3-.2-.7-.2-1.1v-3.7h-.9v-.5l.9-.4.4-1.3h.6v1.4h1.8v.7h-1.8v3.6c0 .4 0 .7.3.9.2.2.4.3.7.3Zm3.1.6h-.9v-8.8h.9v8.8Zm4.3-6.3c.5 0 1 .1 1.4.4.4.2.7.6.9 1 .2.4.3.9.3 1.5v.6h-4.3c0 .7.2 1.3.5 1.7s.8.6 1.5.6.7 0 1-.1c.3 0 .6-.2.9-.3v.8l-.9.3c-.3.1-.7 0-1.1 0-.6 0-1.1-.1-1.6-.4-.4-.2-.8-.6-1-1.1s-.4-1-.4-1.7.1-1.2.3-1.7.5-.9.9-1.1c.4-.3.9-.4 1.4-.4h.2Zm0 .8c-.5 0-.9.2-1.2.5s-.5.8-.5 1.4h3.3c0-.4 0-.7-.2-1-.1-.3-.3-.5-.5-.7s-.5-.2-.9-.2Zm8.2 5.5h-1v-8.3h4.6v.8h-3.6v3h3.4v.8h-3.4v3.7Zm10.2-3.1c0 .5 0 1-.2 1.4-.1.4-.3.7-.6 1-.2.3-.5.5-.9.6s-.8.2-1.2.2-.8 0-1.1-.2l-.9-.6c-.3-.3-.4-.6-.6-1-.1-.4-.2-.9-.2-1.4s.1-1.3.3-1.7c.2-.5.6-.8 1-1.1s.9-.4 1.5-.4 1.1.1 1.5.4c.4.3.8.6 1 1.1s.4 1.1.4 1.7Zm-4.7 0c0 .5 0 .9.2 1.3s.3.6.6.8c.3.2.6.3 1.1.3s.8-.1 1.1-.3c.3-.2.5-.5.6-.8s.2-.8.2-1.3 0-.9-.2-1.3c-.1-.4-.3-.6-.6-.8-.3-.2-.6-.3-1.1-.3s-1.1.2-1.4.6c-.3.4-.4 1-.4 1.8h-.1Zm9.2-3.2h.8v.9h-.8c-.2 0-.5 0-.7.1-.2 0-.4.2-.6.4s-.3.4-.4.7c0 .3-.1.6-.1.9v3.3h-.9v-6.2h.8v1.1h.1c.1-.2.3-.4.5-.6.2-.2.4-.3.6-.5.2-.1.5-.2.8-.2Zm4.3 0c.5 0 1 .1 1.4.4.4.2.7.6.9 1 .2.4.3.9.3 1.5v.6h-4.3c0 .7.2 1.3.5 1.7s.8.6 1.5.6.7 0 1-.1c.3 0 .6-.2.9-.3v.8l-.9.3c-.3.1-.7 0-1.1 0-.6 0-1.1-.1-1.6-.4-.4-.2-.8-.6-1-1.1s-.4-1-.4-1.7.1-1.2.3-1.7c.2-.5.5-.9.9-1.1.4-.3.9-.4 1.4-.4h.2Zm0 .8c-.5 0-.9.2-1.2.5-.3.3-.5.8-.5 1.4h3.3c0-.4 0-.7-.2-1-.1-.3-.3-.5-.5-.7s-.5-.2-.9-.2Zm8.1 3.8c0 .4 0 .7-.3 1-.2.3-.5.5-.8.6s-.8.2-1.3.2-.8 0-1.1-.1-.6-.2-.8-.3v-.9l.9.3c.3.1.7.2 1.1.2s.9 0 1.2-.3c.2-.2.4-.4.4-.7s0-.3-.1-.4c0-.1-.3-.3-.5-.4-.2-.1-.5-.3-.9-.4-.4-.2-.7-.3-1-.4-.3-.1-.5-.3-.7-.5s-.2-.5-.2-.8c0-.5.2-.9.6-1.2s1-.4 1.7-.4.7 0 1 .1c.3 0 .6.2.9.3l-.3.8c-.3-.1-.5-.2-.8-.3-.3 0-.6-.1-.9-.1s-.8 0-1 .2c-.2.1-.3.3-.3.6s0 .4.2.5c.1.1.3.2.5.4s.5.2.9.4c.4.1.7.3 1 .4.3.2.5.3.7.6.2.2.2.5.2.8l-.3-.2Zm3.5 1.1h.9v.7c-.1 0-.3 0-.5.1h-.6c-.3 0-.6 0-.9-.2-.3-.1-.5-.3-.6-.6-.2-.3-.2-.7-.2-1.1v-3.7h-.9v-.5l.9-.4.4-1.3h.6v1.4h1.8v.7h-1.8v3.6c0 .4 0 .7.3.9.2.2.4.3.7.3Z"/><path class="st18" d="M354.3 65.8c-6.2-4.9-13.5-6.5-21.1-4.6L102 117.8c-6.4 1.6-10.9 7.3-10.9 13.8v139.6l8 11.8v25h6.8v-27.1l-8-11.8V153h6.7c1.4 3.5 4.7 5.9 8.7 5.9s9.3-4.2 9.3-9.3-4.2-9.3-9.3-9.3-7.3 2.5-8.7 5.9h-6.7v-14.6c0-3.4 2.3-6.4 5.7-7.2l231.2-56.6c5.5-1.4 10.7-.2 15.3 3.4 6.1 4.8 9 12.2 9 15.6v151.6h6.8V86.8c0-5.8-4.1-15.1-11.6-21Z"/><circle class="st18" cx="116.9" cy="148.1" r="15.7"/><path class="st15" d="M106.5 144.6c.5 0 .8 0 1 .3.2.2.3.4.3.8v.4c0 .1 0 .2-.2.4 0 .1-.3.2-.4.2h-1v1.4h-.4v-3.5h.9-.2Zm0 .4h-.5v1.4h1c.2 0 .3-.1.3-.2v-.4c0-.1 0-.4-.2-.5 0-.1-.4-.2-.7-.2Zm3 .5c.2 0 .4 0 .6.1.2 0 .3.2.4.4s0 .4 0 .6v.2h-1.8c0 .3 0 .5.2.7s.4.2.6.2h.4s.3 0 .4-.1v.3s-.3.1-.4.1h-.5c-.3 0-.5 0-.7-.2-.2-.1-.3-.3-.4-.5s-.2-.4-.2-.7v-.7c0-.2.2-.4.4-.5.2-.1.4-.2.6-.2l.2.3Zm0 .3c-.2 0-.4 0-.5.2s-.2.3-.2.6h1.4v-.4c0-.1 0-.2-.2-.3h-.5Zm2.7 2.4c-.3 0-.6-.1-.8-.3-.2-.2-.3-.6-.3-1s0-.8.3-1 .5-.3.8-.3h.4s.2 0 .3.1c0 0 0 .1.2.2v-1.4h.4v3.7h-.3v-.4s0 .1-.2.2c0 0-.2.1-.3.2s-.2 0-.4 0Zm0-.4c.3 0 .5 0 .6-.2s.2-.4.2-.7c0-.4 0-.7-.2-.8s-.3-.3-.6-.3-.4 0-.5.3-.2.4-.2.8 0 .6.2.7c0 .2.3.3.5.3Zm3-2.3c.2 0 .4 0 .6.1.2 0 .3.2.4.4s0 .4 0 .6v.2h-1.8c0 .3 0 .5.2.7s.4.2.6.2h.4s.3 0 .4-.1v.3s-.3.1-.4.1h-.5c-.3 0-.5 0-.7-.2-.2-.1-.3-.3-.4-.5s-.2-.4-.2-.7v-.7c0-.2.2-.4.4-.5.2-.1.4-.2.6-.2l.2.3Zm0 .3c-.2 0-.4 0-.5.2s-.2.3-.2.6h1.4v-.4c0-.1 0-.2-.2-.3h-.5Zm3.5 1.6v.4c0 .1-.2.2-.4.3h-1.1s-.3 0-.4-.1v-.4s.2.1.4.1h.5c.2 0 .4 0 .5-.1 0 0 .2-.2.2-.3v-.2s0-.1-.2-.2l-.4-.2c-.2 0-.3-.1-.4-.2 0 0-.2-.1-.3-.2v-.4c0-.2 0-.4.3-.5.2-.1.4-.2.7-.2h.4s.3 0 .4.1v.3c-.2 0-.4 0-.5-.1h-.8v.4s0 .1.2.1.2.1.4.2c.2 0 .3.1.4.2s.2.1.3.2 0 .2 0 .4v.4Zm1.5.5h.4v.3h-.8s-.2-.1-.3-.2v-2.1h-.4v-.2l.4-.2.2-.6h.2v.6h.8v.3h-.8v1.9s.2.1.3.1Zm2.1-2.4h.4v.4h-.6s-.2.1-.2.2c0 0 0 .2-.2.3v1.8h-.4v-2.6h.3v.5s0-.2.2-.3c0 0 .2-.1.3-.2h.3-.1Zm1-1h.2v.4h-.4v-.4h.2Zm.2 1v2.6h-.4v-2.6h.4Zm1.8 0c.3 0 .5 0 .7.2.2.1.2.4.2.7v1.8h-.3v-.4s0 .2-.2.2c0 0-.2.1-.3.1h-.8s-.2-.1-.3-.3v-.4c0-.3 0-.5.3-.6.2-.1.5-.2.9-.2h.5v-.7c0-.1-.2-.1-.4-.1h-.4s-.2 0-.4.1v-.3s0-.1.3-.2h.5Zm.5 1.3h-.4c-.3 0-.6 0-.7.2 0 0-.2.2-.2.4v.3s.2.1.4.1.4 0 .6-.2c0-.1.2-.3.2-.6v-.2Zm2.5-1.3c.3 0 .5 0 .7.2s.2.4.2.7v1.7h-.4v-1.7c0-.2 0-.4-.1-.5s-.3-.2-.5-.2-.5 0-.6.2-.2.4-.2.7v1.4h-.4v-2.6h.3v.4s0-.2.2-.2.2-.1.3-.1h.5Zm-16.2 5.1c.3 0 .5 0 .7.1.2 0 .3.2.4.3v1.1c0 .1-.2.2-.3.3s-.2.1-.3.2l1 1.6h-.5l-.9-1.5h-.7v1.5h-.4v-3.5h1Zm-.1.3h-.5v1.3h.6c.3 0 .5 0 .6-.2s.2-.3.2-.5 0-.4-.2-.5c0 0-.4-.1-.7-.1Zm4.3 1.8v.6c0 .2 0 .3-.2.4 0 .1-.2.2-.4.3h-1s-.3-.1-.4-.3c0-.1-.2-.3-.2-.4V152c0-.2.2-.4.4-.5s.4-.2.6-.2.4 0 .6.2c.2.1.3.3.4.5v.7Zm-2 0v.5c0 .2 0 .3.3.4 0 0 .3.1.4.1s.3 0 .4-.1.2-.2.3-.4v-1c0-.2 0-.3-.3-.4 0 0-.3-.1-.5-.1-.3 0-.5 0-.6.3 0 .2-.2.4-.2.7h.2Zm4.9-1.3v2.6h-.3v-.4s0 .2-.2.2c0 0-.2.1-.3.1h-.3c-.2 0-.4 0-.5-.1l-.3-.3v-2.2h.4v2.2c0 .1.2.2.5.2s.3 0 .5-.1c0 0 .2-.2.2-.3v-1.9h.4Zm1.7 2.4h.4v.3h-.8s-.2-.1-.3-.2v-2.1h-.4v-.2l.4-.2.2-.6h.2v.6h.8v.3h-.8v1.9s.2.1.3.1Z"/><path class="st15" d="M122.8 151.4c.2 0 .4 0 .6.1.2 0 .3.2.4.4s0 .4 0 .6v.2H122c0 .3 0 .5.2.7s.4.2.6.2h.4s.3 0 .4-.1v.3s-.3.1-.4.1h-.5c-.3 0-.5 0-.7-.2-.2-.1-.3-.3-.4-.5s-.2-.4-.2-.7v-.7c0-.2.2-.4.4-.5.2-.1.4-.2.6-.2l.2.3Zm0 .3c-.2 0-.4 0-.5.2s-.2.3-.2.6h1.4v-.4c0-.1 0-.2-.2-.3h-.5Zm241.8-21.5c0 .6-.1 1-.3 1.3-.2.3-.6.4-1 .4h-.5c-.2 0-.3-.2-.5-.3-.1-.1-.2-.3-.3-.6 0-.2-.1-.5-.1-.8v-.6h-1.8v-.5h4.5v1.2Zm-.5 0v-.6h-1.8v1.2c0 .2.2.3.3.4.1 0 .3.1.6.1s.5 0 .7-.3.2-.5.2-.9Zm-.6 3.9c0 .3 0 .5-.2.7s-.3.4-.5.5-.5.2-.8.2h-.3v-2.3c-.4 0-.7.1-.9.3-.2.2-.3.5-.3.8v.6c0 .2 0 .3.2.5h-.5c0-.2-.1-.3-.2-.5v-.6c0-.3 0-.6.2-.9.1-.2.3-.4.6-.6s.6-.2.9-.2.7 0 .9.2c.3.1.5.3.6.5s.2.5.2.8Zm-.4 0c0-.3 0-.5-.3-.7s-.4-.3-.8-.3v1.8h.5c.2 0 .3-.2.4-.3 0-.1.1-.3.1-.5Zm-3.1 3.4c0-.4.1-.8.4-1s.7-.4 1.3-.4 1 .1 1.3.4c.3.3.4.6.4 1v.5c0 .1-.1.2-.2.3 0 0-.2.2-.3.2h2v.5h-4.8v-.4h.5c-.1-.2-.2-.2-.3-.3 0 0-.1-.2-.2-.3s0-.3 0-.5Zm.4.1c0 .4.1.6.3.8.2.2.5.2.9.2s.8 0 1-.2c.2-.1.3-.4.3-.8s-.1-.6-.4-.7-.6-.2-1-.2-.7 0-1 .2-.3.4-.3.7h.2Zm3.1 3.9c0 .3 0 .5-.2.7s-.3.4-.5.5-.5.2-.8.2h-.3v-2.3c-.4 0-.7.1-.9.3-.2.2-.3.5-.3.8v.6c0 .2 0 .3.2.5h-.5c0-.2-.1-.3-.2-.5v-.6c0-.3 0-.6.2-.9.1-.2.3-.4.6-.6s.6-.2.9-.2.7 0 .9.2c.3.1.5.3.6.5s.2.5.2.8Zm-.4 0c0-.3 0-.5-.3-.7s-.4-.3-.8-.3v1.8h.5c.2 0 .3-.2.4-.3 0-.1.1-.3.1-.5ZM361 146c-.2 0-.4 0-.5-.2-.1-.1-.3-.3-.3-.5s-.1-.4-.1-.7v-.6c0-.2 0-.3.2-.5h.5c0 .1-.1.3-.2.5s0 .4 0 .6c0 .3 0 .5.1.6 0 .1.2.2.4.2h.2s.1-.1.2-.3c0-.1.1-.3.2-.5 0-.2.2-.4.2-.6s.2-.3.3-.4c.1 0 .3-.1.5-.1.3 0 .5.1.7.3s.2.5.2.9v.6c0 .2 0 .3-.2.5l-.4-.2c0-.1.1-.3.2-.4v-.5c0-.2 0-.4-.1-.5 0-.1-.2-.2-.3-.2h-.3s-.1.2-.2.3c0 .1-.1.3-.2.5 0 .2-.2.4-.2.6s-.2.3-.3.4c-.1 0-.3.1-.5.1h-.1Zm-.6 1.9v.5h-.4v-1c0-.1.2-.3.3-.4.2 0 .4-.1.6-.1h2v-.5h.3l.2.5.7.2v.3h-.8v1h-.4v-1h-2c-.2 0-.4 0-.5.1-.1 0-.2.2-.2.4h.2Zm3.1 2.7v.4h-.5v-.9c0-.1-.1-.2-.2-.3-.1 0-.2-.2-.4-.2h-2.3v-.5h3.4v.4h-.6l.3.3c.1.1.2.2.2.3v.4h.1Zm0 1.6h-3.4v-.5h3.4v.5Zm1.2-.3v.2h-.6v-.4h.6v.2Zm-1.2 2.6c0 .4 0 .7-.3.9-.2.2-.5.3-.9.3H360v-.4h.5c-.1-.2-.2-.3-.3-.4 0-.1-.1-.2-.2-.4v-.5c0-.2 0-.4.1-.5 0-.2.2-.3.3-.4.1 0 .3-.1.6-.1s.6.1.8.4c.2.3.3.7.3 1.2v.6h.2c.3 0 .5 0 .6-.2.1-.1.2-.3.2-.5v-.5c0-.2-.1-.3-.2-.5l.4-.2c0 .2.1.3.2.5s0 .4 0 .6Zm-1.8.7v-.5c0-.4-.1-.7-.2-.9s-.3-.3-.5-.3-.3 0-.4.2c0 .1-.1.3-.1.5 0 .3 0 .5.3.7.2.2.4.3.8.3h.3-.2Zm1.8 3.2c0 .4 0 .7-.3.9-.2.2-.5.3-.9.3h-2.2v-.5h2.2c.3 0 .5 0 .6-.2.1-.1.2-.3.2-.6s-.1-.6-.3-.8c-.2-.2-.5-.2-.9-.2h-1.8v-.5h3.4v.4h-.5c.1.2.2.3.3.4s.1.2.2.4v.4Zm1.1 5.2c0 .4 0 .7-.1.9 0 .2-.2.4-.4.5-.2.1-.4.2-.7.2s-.4 0-.6-.1c-.2 0-.3-.2-.4-.3 0-.1-.2-.3-.2-.4l-2 1.2v-.6l1.9-1.1v-.9h-1.9v-.5h4.5v1.2Zm-.5 0v-.7h-1.7v.7c0 .4 0 .6.2.8s.4.3.7.3.5 0 .7-.3.2-.5.2-.9h-.1Zm-2.3 5.6c-.3 0-.5 0-.7-.1l-.6-.3c-.2-.1-.3-.3-.3-.5s-.1-.4-.1-.7 0-.4.1-.6c0-.2.2-.4.3-.5.2-.1.3-.2.6-.3.2 0 .5-.1.7-.1s.7 0 .9.2c.3.1.5.3.6.5s.2.5.2.8 0 .6-.2.8c-.1.2-.3.4-.6.5-.3.1-.6.2-.9.2Zm0-2.6c-.3 0-.5 0-.7.1s-.4.2-.5.3-.2.3-.2.6 0 .4.2.6.3.3.5.3.4.1.7.1.5 0 .7-.1.3-.2.5-.3.2-.3.2-.6-.1-.6-.3-.8c-.2-.2-.6-.2-1-.2h-.1Zm1.7 6.3h-3.4v-.4h.5c-.1-.2-.2-.3-.3-.4 0-.1-.1-.2-.2-.4v-.4c0-.3 0-.5.1-.7 0-.2.2-.3.4-.4s.4-.1.7-.1h2.2v.5h-2.2c-.3 0-.5 0-.6.2-.1.1-.2.3-.2.6s0 .5.1.6c0 .1.2.3.4.3h2.5v.5Zm-3.1 2.1v.5h-.4v-1c0-.1.2-.3.3-.4.2 0 .4-.1.6-.1h2v-.5h.3l.2.5.7.2v.3h-.8v1h-.4v-1h-2c-.2 0-.4 0-.5.1-.1 0-.2.2-.2.4h.2Zm3.1 2.5c0 .3 0 .5-.2.7s-.3.4-.5.5-.5.2-.8.2h-.3v-2.3c-.4 0-.7.1-.9.3-.2.2-.3.5-.3.8v.6c0 .2 0 .3.2.5h-.5c0-.2-.1-.3-.2-.5v-.6c0-.3 0-.6.2-.9.1-.2.3-.4.6-.6s.6-.2.9-.2.7 0 .9.2c.3.1.5.3.6.5s.2.5.2.8Zm-.4 0c0-.3 0-.5-.3-.7s-.4-.3-.8-.3v1.8h.5c.2 0 .3-.2.4-.3 0-.1.1-.3.1-.5Zm-271 46c0-.6 0-1 .3-1.3.2-.3.6-.4 1-.4h.5c.2 0 .3.2.5.3 0 .1.2.3.3.6v1.4h1.8v.5H92v-1.2Zm.4 0v.6h1.8v-1.2c0-.2-.2-.3-.3-.4 0 0-.3-.1-.6-.1s-.5 0-.7.3-.2.5-.2.9Zm.6-3.9c0-.3 0-.5.2-.7 0-.2.3-.4.5-.5s.5-.2.8-.2h.3v2.3c.4 0 .7-.1.9-.3.2-.2.3-.5.3-.8v-.6c0-.2 0-.3-.2-.5h.5c0 .2 0 .3.2.5v.6c0 .3 0 .6-.2.9 0 .2-.3.4-.6.6-.3.1-.6.2-.9.2s-.7 0-.9-.2c-.3-.1-.5-.3-.6-.5s-.2-.5-.2-.8h-.1Zm.5 0c0 .3 0 .5.3.7.2.2.4.3.8.3v-1.8h-.5c-.2 0-.3.2-.4.3v.5h-.1Zm3.1-3.4c0 .4 0 .8-.4 1-.3.3-.7.4-1.3.4s-1-.1-1.3-.4c-.3-.3-.4-.6-.4-1v-.5c0-.1 0-.2.2-.3 0 0 .2-.2.3-.2h-2v-.5h4.8v.4h-.5c0 .2.2.2.3.3 0 0 0 .2.2.3v.5h.1Zm-.5-.1c0-.4 0-.6-.3-.8-.2-.2-.5-.2-.9-.2s-.8 0-1 .2c-.2.1-.3.4-.3.8s0 .6.4.7c.2.2.6.2 1 .2s.7 0 1-.2.3-.4.3-.7h-.2Zm-3.1-3.9c0-.3 0-.5.2-.7 0-.2.3-.4.5-.5s.5-.2.8-.2h.3v2.3c.4 0 .7-.1.9-.3.2-.2.3-.5.3-.8v-.6c0-.2 0-.3-.2-.5h.5c0 .2 0 .3.2.5v.6c0 .3 0 .6-.2.9 0 .2-.3.4-.6.6-.3.1-.6.2-.9.2s-.7 0-.9-.2c-.3-.1-.5-.3-.6-.5s-.2-.5-.2-.8h-.1Zm.5 0c0 .3 0 .5.3.7.2.2.4.3.8.3v-1.8h-.5c-.2 0-.3.2-.4.3v.5h-.1Zm2.1-4.5c.2 0 .4 0 .5.2 0 .1.3.3.3.5v1.3c0 .2 0 .3-.2.5h-.5c0-.1 0-.3.2-.5v-1.2c0-.1-.2-.2-.4-.2h-.2s0 .1-.2.3c0 .1 0 .3-.2.5 0 .2-.2.4-.2.6s-.2.3-.3.4c0 0-.3.1-.5.1-.3 0-.5-.1-.7-.3s-.2-.5-.2-.9v-.6c0-.2 0-.3.2-.5l.4.2c0 .1 0 .3-.2.4v1c0 .1.2.2.3.2h.3s0-.2.2-.3c0-.1 0-.3.2-.5 0-.2.2-.4.2-.6s.2-.3.3-.4c0 0 .3-.1.5-.1Zm.5-1.9v-.5h.4v1c0 .1-.2.3-.3.4-.2 0-.4.1-.6.1h-2v.5h-.3l-.2-.5-.7-.2v-.3h.8v-1h.4v1h2c.2 0 .4 0 .5-.1 0 0 .2-.2.2-.4h-.2Zm-3.1-2.7v-.4h.5v.8s0 .2.2.3c0 0 .2.2.4.2h2.3v.5h-3.4v-.4h.6c0-.1-.2-.2-.3-.3s-.2-.2-.2-.3v-.4Zm-1.2-1.3v-.2h.6v.4h-.6c-.1 0 0-.1 0-.2Zm1.3-.3h3.4v.5h-3.4v-.5Zm-.1-2.3c0-.4 0-.7.3-.9.2-.2.5-.3.9-.3h2.3v.4h-.5c0 .2.2.3.3.4s0 .2.2.4v1c0 .1-.2.3-.3.4 0 0-.3.1-.6.1s-.6-.1-.8-.4c-.2-.3-.3-.7-.3-1.2v-.6h-.2c-.3 0-.5 0-.6.2 0 .1-.2.3-.2.5v.5c0 .2 0 .3.2.5l-.4.2c0-.2 0-.3-.2-.5v-.6Zm1.8-.7v.5c0 .4 0 .7.2.9s.3.3.5.3.3 0 .4-.2v-.5c0-.3 0-.5-.3-.7-.2-.2-.4-.3-.8-.3h-.3.2Zm-1.8-3.2c0-.4 0-.7.3-.9.2-.2.5-.3.9-.3h2.2v.5h-2.2c-.3 0-.5 0-.6.2 0 .1-.2.3-.2.6s0 .6.3.8c.2.2.5.2.9.2h1.8v.5h-3.4v-.4h.5c0-.2-.2-.3-.3-.4s0-.2-.2-.4v-.4Zm-1-5.2v-.9c0-.2.2-.4.4-.5.2-.1.4-.2.7-.2s.4 0 .6.1c.2 0 .3.2.4.3 0 .1.2.3.2.4l2-1.2v.6l-1.9 1.1v.9h1.9v.5h-4.5V190h.1Zm.4 0v.7h1.7v-.7c0-.4 0-.6-.2-.8s-.4-.3-.7-.3-.5 0-.7.3-.2.5-.2.9Zm2.4-5.6c.3 0 .5 0 .7.1l.6.3c.2.1.3.3.3.5v1.3c0 .2-.2.4-.3.5-.2.1-.3.2-.6.3-.2 0-.5.1-.7.1s-.7 0-.9-.2c-.3-.1-.5-.3-.6-.5s-.2-.5-.2-.8 0-.6.2-.8c0-.2.3-.4.6-.5.3-.1.6-.2.9-.2Zm0 2.6c.3 0 .5 0 .7-.1s.4-.2.5-.3.2-.3.2-.6 0-.4-.2-.6-.3-.3-.5-.3-.4-.1-.7-.1-.5 0-.7.1-.3.2-.5.3-.2.3-.2.6 0 .6.3.8c.2.2.6.2 1 .2Zm-1.7-6.3h3.4v.4h-.5c0 .2.2.3.3.4 0 .1 0 .2.2.4v1.1c0 .2-.2.3-.4.4s-.4.1-.7.1h-2.2v-.5h2.2c.3 0 .5 0 .6-.2 0-.1.2-.3.2-.6v-.6c0-.1-.2-.3-.4-.3h-2.5v-.5Zm3-2.1v-.5h.4v1c0 .1-.2.3-.3.4-.2 0-.4.1-.6.1h-2v.5h-.3l-.2-.5-.7-.2v-.3h.8v-1h.4v1h2c.2 0 .4 0 .5-.1 0 0 .2-.2.2-.4h-.2Zm-3.1-2.5c0-.3 0-.5.2-.7s.3-.4.5-.5.5-.2.8-.2h.3v2.3c.4 0 .7-.1.9-.3.2-.2.3-.5.3-.8v-.6c0-.2 0-.3-.2-.5h.5c0 .2 0 .3.2.5v.6c0 .3 0 .6-.2.9 0 .2-.3.4-.6.6s-.6.2-.9.2-.7 0-.9-.2c-.3-.1-.5-.3-.6-.5s-.2-.5-.2-.8h-.1Zm.5 0c0 .3 0 .5.3.7s.4.3.8.3v-1.8h-.5c-.2 0-.3.2-.4.3v.5h-.1Zm111.5-81.9h1.3c.3.2.5.4.6.9v.6c0 .2 0 .4-.2.5-.1.2-.3.3-.5.4s-.5.2-.8.3h-.5l.4 1.9h-.5l-1-4.3 1.2-.3Zm0 .4h-.6l.4 1.9h.5c.3-.2.5-.3.7-.4s.3-.2.4-.4v-.6c0-.3-.2-.5-.4-.6h-.9Zm4-.3h.8c.2 0 .4.2.6.4s.3.4.3.7v.3l-2.2.5c0 .4.3.7.5.8.2.2.5.2.9 0 .2 0 .4 0 .5-.2.2 0 .3-.2.5-.3v.4s-.2.2-.4.3c-.2 0-.3 0-.6.2h-.9c-.3 0-.5-.2-.7-.4-.2-.2-.3-.5-.4-.9v-1c0-.3.2-.5.4-.7s.4-.3.7-.4v.2Zm.1.4c-.3 0-.5.2-.6.4-.1.2-.2.5-.1.8l1.7-.4c0-.2-.1-.4-.2-.5 0 0-.2-.2-.4-.3h-.5.1Zm4.1 2.2c-.4 0-.8 0-1.1-.2s-.5-.6-.7-1.2c-.1-.6-.1-1 0-1.4.2-.3.5-.6.9-.7h.9c.1 0 .2 0 .3.2v-.6l-.3-1.3h.5l1.1 4.6h-.4l-.2-.4s0 .2-.2.3l-.3.3c-.1 0-.3 0-.4.2h-.1Zm0-.4c.4 0 .6-.2.7-.5 0-.2.1-.6 0-.9-.1-.5-.2-.8-.4-1s-.5-.2-.8-.2-.5.2-.6.5v1c0 .4.2.7.5.9s.5.2.8.2h-.2Zm3-3.9h.8c.2 0 .4.2.6.4s.3.4.3.7v.3l-2.2.5c0 .4.3.7.5.8.2.2.5.2.9 0 .2 0 .4 0 .5-.2.2 0 .3-.2.5-.3v.4s-.2.2-.4.3c-.2 0-.3 0-.6.2h-.9c-.3 0-.5-.2-.7-.4-.2-.2-.3-.5-.4-.9v-1c0-.3.2-.5.4-.7s.4-.3.7-.4v.2Zm.1.4c-.3 0-.5.2-.6.4-.1.2-.2.5-.1.8l1.7-.4c0-.2-.1-.4-.2-.5 0 0-.2-.2-.4-.3h-.5.1Zm4.8 1v.6c0 .2-.2.3-.4.4s-.4.2-.7.3H219v-.5h1c.3 0 .5-.2.6-.3.1 0 .1-.3.1-.4 0 0 0-.2-.1-.2h-1.5c-.2 0-.3 0-.4-.2-.1 0-.2-.2-.2-.4 0-.3 0-.5.2-.7s.5-.3.8-.4h1.1v.4h-1c-.2 0-.4 0-.5.2s-.1.2-.1.4 0 .2.1.2h1.4c.2 0 .3 0 .4.2.1 0 .2.2.2.4Zm2 .1h.4v.4h-.9c-.2 0-.3 0-.4-.2-.1 0-.2-.3-.3-.6l-.5-2h-.5l.4-.3v-.8h.3l.2.8 1-.2v.4l-.9.2.5 1.9c0 .2.1.4.3.4h.4Zm2-3.6h.4v.5h-.3c-.1 0-.3 0-.4.2-.1 0-.2.2-.3.3 0 0-.1.3-.1.4v.5l.4 1.8h-.5l-.8-3.2h.4l.2.5s0-.3.2-.4l.3-.3c.1 0 .2-.2.4-.2h.1Zm1-1.5h.2s.1 0 .1.2v.3h-.4s-.1 0-.1-.2v-.3h.2Zm.5 1.2.8 3.3h-.5l-.8-3.2h.5Zm2.3-.6h.9c.2 0 .4.4.5.8l.5 2.2h-.4l-.2-.4s-.1.3-.2.4l-.3.3c-.1 0-.3 0-.5.2h-.6c-.2 0-.3 0-.4-.2-.1 0-.2-.3-.3-.5 0-.3 0-.6.2-.9s.6-.4 1.1-.6l.6-.2v-.2c-.1-.3-.2-.5-.4-.6h-.6c-.2 0-.3 0-.5.2-.1 0-.3.2-.4.3l-.2-.3c.1 0 .3-.2.5-.3.2 0 .4-.2.6-.2Zm1.1 1.6h-.5c-.4.3-.7.4-.8.6s-.2.3-.1.6c0 .2.1.3.3.4h.5c.3 0 .5-.2.7-.4.1-.2.2-.5.1-.8v-.3h-.2Zm2.6-2.5h1c.2 0 .4.4.5.9l.5 2.2h-.5l-.5-2c0-.3-.2-.5-.3-.6h-.6c-.4 0-.6.3-.7.5 0 .2-.1.6 0 1l.4 1.7h-.5l-.8-3.2h.4l.2.4s.1-.3.2-.4l.3-.3c.1 0 .3 0 .4-.2Zm4.9-2.3h.9c.3 0 .5 0 .6.3.2.2.3.4.3.7v.6c0 .2-.1.3-.2.5-.1 0-.2.2-.4.3l1.7 1.7h-.6l-1.5-1.4-.9.2.4 1.8h-.5l-1.1-4.3 1.2-.3h.1Zm0 .5-.6.2.4 1.7.7-.2c.4 0 .6-.2.7-.4.1-.2.2-.4.1-.7 0-.3-.2-.5-.4-.6h-.9Zm6 1v.8c0 .3 0 .4-.2.6s-.2.3-.4.5l-.6.3h-.6c-.2 0-.4 0-.6-.2-.2 0-.3-.3-.4-.5-.1-.2-.2-.4-.3-.7v-1c0-.3.2-.5.4-.7s.5-.3.8-.4h.8c.3 0 .5.2.7.5.2.2.3.5.4.9Zm-2.5.6c0 .3.2.5.3.7s.3.3.4.4h.6c.2 0 .4-.2.5-.3.1 0 .2-.3.2-.5v-.7c0-.3-.2-.5-.3-.7s-.3-.3-.4-.4-.4 0-.6 0c-.3 0-.6.3-.7.5-.1.3-.1.6 0 1Zm5.7-3.1.8 3.3h-.4l-.2-.3s-.1.3-.2.4l-.3.3c-.1 0-.3 0-.4.2h-.7c-.2 0-.4 0-.5-.3l-.3-.6-.5-2.2h.5l.5 2c0 .3.2.5.3.6h.6c.2 0 .4-.2.6-.3.1 0 .2-.3.2-.5v-.7l-.4-1.7h.5v-.2Zm2.8 2.4h.4v.4h-.9c-.2 0-.3 0-.4-.2-.1 0-.2-.3-.3-.6l-.5-2h-.5l.4-.3v-.8h.3l.2.8 1-.2v.4l-.9.2.5 1.9c0 .2.1.4.3.4h.4Zm1.7-3.5h.8c.2 0 .4.2.6.4s.3.4.3.7v.3l-2.2.5c0 .4.3.7.5.8.2.2.5.2.9 0 .2 0 .4 0 .5-.2.2 0 .3-.2.5-.3v.4s-.2.2-.4.3c-.2 0-.3 0-.6.2h-.9c-.3 0-.5-.2-.7-.4-.2-.2-.3-.5-.4-.9v-1c0-.3.2-.5.4-.7s.4-.3.7-.4v.2Zm.1.4c-.3 0-.5.2-.6.4-.1.2-.2.5-.1.8l1.7-.4c0-.2-.1-.4-.2-.5 0 0-.2-.2-.4-.3h-.5.1Zm-149.6 82.5h27.4v27.5h-16.3v3h-15v-16.1h3.9v-14.4z"/><path d="m126.1 175.7-1.1 1.4c-.3.3-.7.6-1.2.7s-1.2 0-1.9.2-.8.4-1 .7c-.8.9-1.5 2-2.3 2.9s-.9.7-1.5.8h-7.5l1.2-1.5c.4-.4.8-.7 1.4-.7h1.4c.4 0 .9-.4 1.2-.8.8-.9 1.5-2 2.3-2.9s.9-.7 1.5-.7h7.5Z" style="fill:#0e73a0"/><path d="m121.3 171.2-1.2 1.5c-.2.3-.6.5-.9.6-.6.2-1.3 0-1.9.2s-.9.4-1.2.8c-.9 1-1.6 2.1-2.5 3.1-.4.3-.9.5-1.4.6h-7.3c.7-.7 1.1-1.8 2.2-2.1s1.1 0 1.7-.1.9-.4 1.2-.7c.8-.9 1.5-2 2.3-2.9s.9-.7 1.5-.8h7.5v-.2Z" style="fill:#66a754"/><path class="st5" d="m105.4 185.5.7 1.5.8-1.5h.6v2.9h-.6v-1.7.2c0 .3-.3.6-.4.9h-.4l-.3-.6-.3-.5v1.7h-.6v-2.9h.6Zm12.7 0v.5h-.8v2.4h-.6V186h-.8v-.5h2.2Z"/><path d="M110.8 185.8v.6h.4v.4h-.4v1.1c0 .1.4 0 .4 0v.5c-.4 0-.8 0-.9-.4s0-1.2 0-1.2h-.3v-.3l.2-.1c.2-.1 0-.4 0-.6h.6Z" style="fill:#020202"/><path class="st5" d="M111.7 186.3h.5v.2c.2-.2.4-.2.6-.2v.5h-.4s-.2.2-.2.3v1.3h-.5v-2.2Zm8.4 0h.5v2.2h-.5zm5.5 0h.5v2.2h-.5z"/><path d="M120.7 186h-.6v-.5c.5 0 .6-.1.6.5Zm5.4 0h-.5v-.5h.6v.4Z" style="fill:#0a0a0a"/><path class="st5" d="M121.1 186.3h.5v.2c.5-.3 1.2 0 1.3.6 0 .9-.2 1.7-1.3 1.4v.8h-.5v-2.9Zm.8 1.7c.3.2.5 0 .6-.3s0-.9-.5-.8-.4 1 0 1.2Zm-2.2.5h-.5v-.2c-.4.3-1.2.2-1.2-.4s.7-.8 1.2-.8c0-.6-.7-.3-1-.2v-.5c.3-.2 1.2-.3 1.4.2s0 .2 0 .2v1.6Zm-1.2-.9c-.4.4.6.7.7.1s0-.3-.3-.2-.3 0-.4.1Zm6.7 0h-1.3c0 .3.3.5.5.5s.3-.3.6 0 0 .2-.2.3-.5.1-.8.1c-1-.1-1-2.1.2-2.2s1 .6 1 1.3Zm-1.3-.4h.8c0-.6-.8-.6-.8 0Zm-14.1.4h-1.3c0 .3.3.5.5.5s.3-.2.4-.2.3.2.3.3-.4.3-.6.3c-.7 0-1.1-.2-1.2-.9 0-1.8 2.1-1.6 1.9 0Zm-1.3-.4h.8c0-.6-.8-.6-.8 0Zm5.1-.9c.6-.1 1.1.2 1.1.8s0 1.1-.6 1.3-1 0-1.2-.5 0-1.5.6-1.6Zm.6 1.5c0-.3 0-.9-.3-1-.5-.1-.6.9-.3 1.1s.5 0 .6-.1Z"/><path d="m194.6 197.3-1-2.6h-3.3l-1 2.6h-1l3.2-8.3h.9l3.2 8.3h-1Zm-1.3-3.5-1-2.6s0-.2-.1-.3-.1-.3-.2-.5 0-.3-.1-.4c0 .2 0 .3-.1.5 0 .2 0 .3-.1.4 0 .1 0 .2-.1.3l-1 2.6h2.7Zm6.1-2.8h.8v.9h-.8c-.2 0-.5 0-.7.1s-.4.2-.6.4c-.2.2-.3.4-.4.7 0 .3-.1.6-.1.9v3.3h-.9v-6.2h.8v1.1h.1c.1-.2.3-.4.5-.6s.4-.3.6-.5.5-.2.8-.2h-.1Zm3.9 5.6h.9v.7c-.1 0-.3 0-.5.1h-.6c-.3 0-.6 0-.9-.2-.3-.1-.5-.3-.6-.6-.2-.3-.2-.7-.2-1.1v-3.7h-.9v-.5l.9-.4.4-1.3h.6v1.4h1.8v.7h-1.8v3.6c0 .4 0 .7.3.9.2.2.4.3.7.3Zm7.5-5.6c.7 0 1.3.2 1.6.5.4.3.5.9.5 1.6v4.2h-.7l-.2-.9c-.2.2-.4.4-.5.6s-.4.3-.7.3-.5.1-.9.1-.7 0-1-.2-.5-.3-.7-.6-.3-.6-.3-1c0-.6.2-1.1.7-1.4.5-.3 1.2-.5 2.2-.5h1.1v-.4c0-.5-.1-.9-.3-1.1-.2-.2-.6-.3-1-.3s-.6 0-.9.1c-.3 0-.6.2-.8.3l-.3-.7c.3-.1.6-.3 1-.4.4-.1.7-.2 1.1-.2Zm1.2 3.2h-.9c-.8 0-1.3.2-1.6.4s-.5.5-.5.9.1.6.3.8.5.3.9.3 1-.2 1.4-.5c.3-.3.5-.8.5-1.4v-.6Zm5.8-3.2c.7 0 1.3.2 1.7.5.4.4.6.9.6 1.7v4h-.9v-4c0-.5-.1-.9-.4-1.2s-.6-.4-1.1-.4-1.2.2-1.4.6c-.3.4-.4 1-.4 1.7v3.2h-.9v-6.2h.8v.9h.2c.1-.2.3-.4.5-.6.2-.1.4-.3.7-.3s.5-.1.8-.1l-.2.2Zm6.4 6.4c-.8 0-1.4-.3-1.9-.8s-.7-1.3-.7-2.4.2-1.9.7-2.4 1.1-.8 1.9-.8.6 0 .9.1c.2 0 .5.2.6.3.2.1.3.3.4.5v-3.5h.9v8.8h-.8v-.9h-.2c-.1.2-.3.4-.4.5-.2.2-.4.3-.6.4-.2 0-.5.1-.9.1h.1Zm.1-.8c.7 0 1.1-.2 1.4-.6.3-.4.4-.9.4-1.7v-.2c0-.8-.1-1.4-.4-1.8s-.7-.6-1.4-.6-1 .2-1.3.7-.4 1-.4 1.8.1 1.3.4 1.8c.3.4.7.6 1.3.6Zm11.4-6.9c-.5 0-.9 0-1.2.2-.4.2-.7.4-.9.7-.3.3-.4.7-.6 1.1s-.2.9-.2 1.4.1 1.3.3 1.8.5.9 1 1.2c.4.3 1 .4 1.6.4h1c.3 0 .6-.1 1-.2v.8l-.9.3h-1.2c-.8 0-1.5-.2-2.1-.5s-1-.8-1.3-1.5-.4-1.4-.4-2.3 0-1.2.3-1.7c.2-.5.4-1 .8-1.3.3-.4.8-.7 1.2-.9.5-.2 1.1-.3 1.7-.3s.8 0 1.2.1c.4 0 .7.2 1.1.4l-.4.8-.9-.3c-.3 0-.7-.1-1-.1h-.1Zm8.8 1.4v6.2h-.8v-.9h-.2c-.1.2-.3.4-.5.5s-.4.3-.7.3-.5.1-.8.1c-.5 0-.9 0-1.2-.2s-.6-.4-.7-.7c-.2-.3-.3-.8-.3-1.3V191h.9v4c0 .5.1.9.4 1.2.2.3.6.4 1.1.4s.8 0 1.1-.3c.3-.2.5-.4.6-.8.1-.3.2-.8.2-1.2V191h.9Zm2.9 6.2h-.9v-8.8h.9v8.8Zm4-.7h.9v.7c-.1 0-.3 0-.5.1h-.6c-.3 0-.6 0-.9-.2-.3-.1-.5-.3-.6-.6-.2-.3-.2-.7-.2-1.1v-3.7h-.9v-.5l.9-.4.4-1.3h.6v1.4h1.8v.7h-1.8v3.6c0 .4 0 .7.3.9.2.2.4.3.7.3Zm7.2-5.5v6.2h-.8v-.9h-.2c-.1.2-.3.4-.5.5s-.4.3-.7.3-.5.1-.8.1c-.5 0-.9 0-1.2-.2s-.6-.4-.7-.7c-.2-.3-.3-.8-.3-1.3V191h.9v4c0 .5.1.9.4 1.2.2.3.6.4 1.1.4s.8 0 1.1-.3c.3-.2.5-.4.6-.8.1-.3.2-.8.2-1.2V191h.9Zm4.8-.1h.8v.9h-.8c-.2 0-.5 0-.7.1s-.4.2-.6.4-.3.4-.4.7c0 .3-.1.6-.1.9v3.3h-.9v-6.2h.8v1.1h.1c.1-.2.3-.4.5-.6s.4-.3.6-.5.5-.2.8-.2Zm4.2 0c.7 0 1.3.2 1.6.5.4.3.5.9.5 1.6v4.2h-.7l-.2-.9c-.2.2-.4.4-.5.6s-.4.3-.7.3-.5.1-.9.1-.7 0-1-.2-.5-.3-.7-.6-.3-.6-.3-1c0-.6.2-1.1.7-1.4.5-.3 1.2-.5 2.2-.5h1.1v-.4c0-.5-.1-.9-.3-1.1-.2-.2-.6-.3-1-.3s-.6 0-.9.1c-.3 0-.6.2-.8.3l-.3-.7c.3-.1.6-.3 1-.4.4-.1.7-.2 1.1-.2Zm1.3 3.2h-.9c-.8 0-1.3.2-1.6.4-.3.2-.5.5-.5.9s.1.6.3.8c.2.2.5.3.9.3s1-.2 1.4-.5c.3-.3.5-.8.5-1.4v-.6Zm3.8 3.1h-.9v-8.8h.9v8.8Zm8.6-7.6c-.5 0-.9 0-1.2.2-.4.2-.7.4-.9.7-.3.3-.4.7-.6 1.1s-.2.9-.2 1.4.1 1.3.3 1.8c.2.5.5.9 1 1.2.4.3 1 .4 1.6.4h1c.3 0 .6-.1 1-.2v.8l-.9.3h-1.2c-.8 0-1.5-.2-2.1-.5s-1-.8-1.3-1.5-.4-1.4-.4-2.3 0-1.2.3-1.7c.2-.5.4-1 .8-1.3.3-.4.8-.7 1.2-.9.5-.2 1.1-.3 1.7-.3s.8 0 1.2.1c.4 0 .7.2 1.1.4l-.4.8-.9-.3c-.3 0-.7-.1-1-.1h-.1Zm9 4.5c0 .5 0 1-.2 1.4-.1.4-.3.7-.6 1-.2.3-.5.5-.9.6s-.8.2-1.2.2-.8 0-1.1-.2l-.9-.6c-.3-.3-.4-.6-.6-1-.1-.4-.2-.9-.2-1.4s.1-1.3.3-1.7c.2-.5.6-.8 1-1.1.4-.2.9-.4 1.5-.4s1.1.1 1.5.4c.4.3.8.6 1 1.1s.4 1.1.4 1.7Zm-4.7 0c0 .5 0 .9.2 1.3s.3.6.6.8c.3.2.6.3 1.1.3s.8 0 1.1-.3c.3-.2.5-.5.6-.8s.2-.8.2-1.3 0-.9-.2-1.3c-.1-.4-.3-.6-.6-.8-.3-.2-.6-.3-1.1-.3s-1.1.2-1.4.6c-.3.4-.4 1-.4 1.8h-.1Zm9.2-3.2c.7 0 1.3.2 1.7.5.4.4.6.9.6 1.7v4h-.9v-4c0-.5-.1-.9-.4-1.2s-.6-.4-1.1-.4-1.2.2-1.4.6c-.3.4-.4 1-.4 1.7v3.2h-.9v-6.2h.8v.9h.2c.1-.2.3-.4.5-.6.2-.1.4-.3.7-.3s.5-.1.8-.1l-.2.2Zm6.7 6.4c-.6 0-1-.1-1.5-.3s-.8-.6-1-1.1-.4-1.1-.4-1.8.1-1.4.4-1.8c.3-.5.6-.8 1-1.1.4-.2.9-.3 1.5-.3h.9c.3 0 .5.1.7.2l-.3.8c-.2 0-.4-.1-.7-.2h-.7c-.4 0-.8 0-1.1.3s-.5.5-.6.8c-.1.4-.2.8-.2 1.3s0 .9.2 1.3c.1.4.3.6.6.8.3.2.6.3 1 .3s.6 0 .9-.1c.3 0 .5-.2.7-.2v.8c-.2.1-.4.2-.7.2h-.9.2Zm8.4-3.2c0 .5 0 1-.2 1.4-.1.4-.3.7-.6 1-.2.3-.5.5-.9.6s-.8.2-1.2.2-.8 0-1.1-.2l-.9-.6c-.3-.3-.4-.6-.6-1-.1-.4-.2-.9-.2-1.4s.1-1.3.3-1.7c.2-.5.6-.8 1-1.1.4-.2.9-.4 1.5-.4s1.1.1 1.5.4c.4.3.8.6 1 1.1s.4 1.1.4 1.7Zm-4.7 0c0 .5 0 .9.2 1.3s.3.6.6.8c.3.2.6.3 1.1.3s.8 0 1.1-.3c.3-.2.5-.5.6-.8s.2-.8.2-1.3 0-.9-.2-1.3c-.1-.4-.3-.6-.6-.8-.3-.2-.6-.3-1.1-.3s-1.1.2-1.4.6c-.3.4-.4 1-.4 1.8h-.1Zm11.4-3.1v6.2h-.8v-.9h-.2c-.1.2-.3.4-.5.5s-.4.3-.7.3-.5.1-.8.1c-.5 0-.9 0-1.2-.2s-.6-.4-.7-.7c-.2-.3-.3-.8-.3-1.3V191h.9v4c0 .5.1.9.4 1.2.2.3.6.4 1.1.4s.8 0 1.1-.3c.3-.2.5-.4.6-.8.1-.3.2-.8.2-1.2V191h.9Zm4.8-.1h.8v.9h-.8c-.2 0-.5 0-.7.1s-.4.2-.6.4-.3.4-.4.7c0 .3-.1.6-.1.9v3.3h-.9v-6.2h.8v1.1h.1c.1-.2.3-.4.5-.6s.4-.3.6-.5.5-.2.8-.2Zm5.9 4.6c0 .4 0 .7-.3 1-.2.3-.5.5-.8.6-.4.1-.8.2-1.3.2s-.8 0-1.1-.1c-.3 0-.6-.2-.8-.3v-.9l.9.3c.3.1.7.2 1.1.2s.9 0 1.2-.3c.2-.2.4-.4.4-.7s0-.3-.1-.4c0-.1-.3-.3-.5-.4-.2-.1-.5-.3-.9-.4-.4-.2-.7-.3-1-.4-.3-.1-.5-.3-.7-.5s-.2-.5-.2-.8c0-.5.2-.9.6-1.2s1-.4 1.7-.4.7 0 1 .1c.3 0 .6.2.9.3l-.3.8c-.3-.1-.5-.2-.8-.3-.3 0-.6-.1-.9-.1s-.8 0-1 .2c-.2.1-.3.3-.3.6s0 .4.2.5.3.2.5.4c.2.1.5.2.9.4.4.1.7.3 1 .4.3.2.5.3.7.6s.2.5.2.8l-.3-.2Zm3.9-4.6c.5 0 1 .1 1.4.3s.7.6.9 1c.2.4.3.9.3 1.5v.6h-4.3c0 .7.2 1.3.5 1.7.4.4.8.6 1.5.6s.7 0 1-.1c.3 0 .6-.2.9-.3v.8l-.9.3h-1.1c-.6 0-1.1-.1-1.6-.4-.4-.2-.8-.6-1-1.1s-.4-1-.4-1.7.1-1.2.3-1.7c.2-.5.5-.9.9-1.1.4-.3.9-.4 1.4-.4h.2Zm0 .7c-.5 0-.9.2-1.2.5-.3.3-.5.8-.5 1.4h3.3c0-.4 0-.7-.2-1-.1-.3-.3-.5-.5-.7s-.5-.2-.9-.2Zm-113.9 18.9c-.5 0-.9 0-1.2.2-.4.2-.7.4-.9.7-.3.3-.4.7-.6 1.1s-.2.9-.2 1.4.1 1.3.3 1.8.5.9 1 1.2c.4.3 1 .4 1.6.4h1c.3 0 .6-.1 1-.2v.8l-.9.3h-1.2c-.8 0-1.5-.2-2.1-.5s-1-.8-1.3-1.5-.4-1.4-.4-2.3 0-1.2.3-1.7c.2-.5.4-1 .8-1.3.3-.4.8-.7 1.2-.9.5-.2 1.1-.3 1.7-.3s.8 0 1.2.1c.4 0 .7.2 1.1.4l-.4.8-.9-.3c-.3 0-.7-.1-1-.1h-.1Zm8.9 4.4c0 .5 0 1-.2 1.4-.1.4-.3.7-.6 1-.2.3-.5.5-.9.6s-.8.2-1.2.2-.8 0-1.1-.2l-.9-.6c-.3-.3-.4-.6-.6-1-.1-.4-.2-.9-.2-1.4s.1-1.3.3-1.7c.2-.5.6-.8 1-1.1.4-.2.9-.4 1.5-.4s1.1.1 1.5.4c.4.3.8.6 1 1.1s.4 1.1.4 1.7Zm-4.7 0c0 .5 0 .9.2 1.3s.3.6.6.8.6.3 1.1.3.8 0 1.1-.3c.3-.2.5-.5.6-.8s.2-.8.2-1.3 0-.9-.2-1.3c-.1-.4-.3-.6-.6-.8s-.6-.3-1.1-.3-1.1.2-1.4.6c-.3.4-.4 1-.4 1.8h-.1Zm9.3-3.2c.7 0 1.3.2 1.7.5.4.4.6.9.6 1.7v4h-.9v-4c0-.5-.1-.9-.4-1.2s-.6-.4-1.1-.4-1.2.2-1.4.6c-.3.4-.4 1-.4 1.7v3.2h-.9v-6.2h.8v.9h.2c.1-.2.3-.4.5-.6.2-.1.4-.3.7-.3s.5-.1.8-.1l-.2.2Zm8.1 4.6c0 .4 0 .7-.3 1-.2.3-.5.5-.8.6-.4.1-.8.2-1.3.2s-.8 0-1.1-.1c-.3 0-.6-.2-.8-.3v-.9l.9.3c.3.1.7.2 1.1.2s.9 0 1.2-.3.4-.4.4-.7 0-.3-.1-.4c0-.1-.3-.3-.5-.4-.2-.1-.5-.3-.9-.4-.4-.2-.7-.3-1-.4-.3-.1-.5-.3-.7-.5s-.2-.5-.2-.8c0-.5.2-.9.6-1.2.4-.3 1-.4 1.7-.4s.7 0 1 .1c.3 0 .6.2.9.3l-.3.8c-.3-.1-.5-.2-.8-.3-.3 0-.6-.1-.9-.1s-.8 0-1 .2c-.2.1-.3.3-.3.6s0 .4.2.5.3.2.5.4c.2.1.5.2.9.4.4.1.7.3 1 .4.3.2.5.3.7.6s.2.5.2.8l-.3-.2Zm3.6 1.1h.9v.7c-.1 0-.3 0-.5.1h-.6c-.3 0-.6 0-.9-.2-.3-.1-.5-.3-.6-.6-.2-.3-.2-.7-.2-1.1v-3.7h-.9v-.5l.9-.4.4-1.3h.6v1.4h1.8v.7h-1.8v3.6c0 .4 0 .7.3.9.2.2.4.3.7.3Zm4.9-5.7h.8v.9h-.8c-.2 0-.5 0-.7.1s-.4.2-.6.4c-.2.2-.3.4-.4.7 0 .3-.1.6-.1.9v3.3h-.9v-6.2h.8v1.1h.1c.1-.2.3-.4.5-.6s.4-.3.6-.5.5-.2.8-.2h-.1Zm7 .2v6.2h-.8v-.9h-.2c-.1.2-.3.4-.5.5s-.4.3-.7.3-.5.1-.8.1c-.5 0-.9 0-1.2-.2s-.6-.4-.7-.7c-.2-.3-.3-.8-.3-1.3v-4.1h.9v4c0 .5.1.9.4 1.2.2.3.6.4 1.1.4s.8 0 1.1-.3c.3-.2.5-.4.6-.8.1-.3.2-.8.2-1.2v-3.3h.9Zm4.5 6.3c-.6 0-1-.1-1.5-.3s-.8-.6-1-1.1-.4-1.1-.4-1.8.1-1.4.4-1.8c.3-.5.6-.8 1-1.1.4-.2.9-.3 1.5-.3h.9c.3 0 .5.1.7.2l-.3.8c-.2 0-.4-.1-.7-.2h-.7c-.4 0-.8 0-1.1.3s-.5.5-.6.8c-.1.4-.2.8-.2 1.3s0 .9.2 1.3c.1.4.3.6.6.8.3.2.6.3 1 .3s.6 0 .9-.1c.3 0 .5-.2.7-.2v.8c-.2.1-.4.2-.7.2h-.9.2Zm5-.8h.9v.7c-.1 0-.3 0-.5.1h-.6c-.3 0-.6 0-.9-.2-.3-.1-.5-.3-.6-.6-.2-.3-.2-.7-.2-1.1v-3.7h-.9v-.5l.9-.4.4-1.3h.6v1.4h1.8v.7H263v3.6c0 .4 0 .7.3.9.2.2.4.3.7.3Zm2.6-7.9c.2 0 .3 0 .4.2.1 0 .2.3.2.5s0 .4-.2.5-.2.2-.4.2-.3 0-.4-.2c-.1-.1-.2-.3-.2-.5s0-.4.2-.5c.1-.1.2-.2.4-.2Zm.5 2.4v6.2h-.9V212h.9Zm7.3 3c0 .5 0 1-.2 1.4-.1.4-.3.7-.6 1-.2.3-.5.5-.9.6s-.8.2-1.2.2-.8 0-1.1-.2l-.9-.6c-.3-.3-.4-.6-.6-1-.1-.4-.2-.9-.2-1.4s.1-1.3.3-1.7c.2-.5.6-.8 1-1.1.4-.2.9-.4 1.5-.4s1.1.1 1.5.4c.4.3.8.6 1 1.1s.4 1.1.4 1.7Zm-4.7 0c0 .5 0 .9.2 1.3s.3.6.6.8c.3.2.6.3 1.1.3s.8 0 1.1-.3c.3-.2.5-.5.6-.8s.2-.8.2-1.3 0-.9-.2-1.3c-.1-.4-.3-.6-.6-.8-.3-.2-.6-.3-1.1-.3s-1.1.2-1.4.6c-.3.4-.4 1-.4 1.8h-.1Zm9.3-3.2c.7 0 1.3.2 1.7.5.4.4.6.9.6 1.7v4h-.9v-4c0-.5-.1-.9-.4-1.2s-.6-.4-1.1-.4-1.2.2-1.4.6c-.3.4-.4 1-.4 1.7v3.2h-.9v-6.2h.8v.9h.2c.1-.2.3-.4.5-.6.2-.1.4-.3.7-.3s.5-.1.8-.1l-.2.2Zm12.5 6.3-1-2.6h-3.3l-1 2.6h-1l3.2-8.3h.9l3.2 8.3h-1Zm-1.3-3.4-1-2.6s0-.2-.1-.3-.1-.3-.2-.5 0-.3-.1-.4c0 .2 0 .3-.1.5 0 .2 0 .3-.1.4 0 .1 0 .2-.1.3l-1 2.6h2.7Zm6.1-2.9h.8v.9h-.8c-.2 0-.5 0-.7.1s-.4.2-.6.4-.3.4-.4.7c0 .3-.1.6-.1.9v3.3h-.9v-6.2h.8v1.1h.1c.1-.2.3-.4.5-.6s.4-.3.6-.5.5-.2.8-.2Zm4.3 0c.5 0 1 .1 1.4.3s.7.6.9 1c.2.4.3.9.3 1.5v.6h-4.3c0 .7.2 1.3.5 1.7.4.4.8.6 1.5.6s.7 0 1-.1c.3 0 .6-.2.9-.3v.8l-.9.3h-1.1c-.6 0-1.1-.1-1.6-.4-.4-.2-.8-.6-1-1.1s-.4-1-.4-1.7.1-1.2.3-1.7c.2-.5.5-.9.9-1.1.4-.3.9-.4 1.4-.4h.2Zm0 .8c-.5 0-.9.2-1.2.5-.3.3-.5.8-.5 1.4h3.3c0-.4 0-.7-.2-1-.1-.3-.3-.5-.5-.7s-.5-.2-.9-.2Zm6.4-.7c.7 0 1.3.2 1.6.5.4.3.5.9.5 1.6v4.2h-.7l-.2-.9c-.2.2-.4.4-.5.6s-.4.3-.7.3-.5.1-.9.1-.7 0-1-.2-.5-.3-.7-.6-.3-.6-.3-1c0-.6.2-1.1.7-1.4.5-.3 1.2-.5 2.2-.5h1.1v-.4c0-.5-.1-.9-.3-1.1-.2-.2-.6-.3-1-.3s-.6 0-.9.1c-.3 0-.6.2-.8.3l-.3-.7c.3-.1.6-.3 1-.4.4-.1.7-.2 1.1-.2Zm1.3 3.2h-.9c-.8 0-1.3.2-1.6.4-.3.2-.5.5-.5.9s.1.6.3.8c.2.2.5.3.9.3s1-.2 1.4-.5c.3-.3.5-.8.5-1.4v-.6Z"/></svg>